<?xml version="1.0" standalone="no"?>
<!DOCTYPE svg PUBLIC "-//W3C//DTD SVG 1.1//EN" "http://www.w3.org/Graphics/SVG/1.1/DTD/svg11.dtd" >
<svg>
<metadata>
Created by FontForge 20090914 at Sun Mar  8 23:55:47 2015
 By www-data
Copyright 1989-2004 Bitstream Inc. Localization: copyright 2000-2004 Kuba Tatarkiewicz. 
</metadata>
<defs>
<font id="BankGothicMdEU-Normal" horiz-adv-x="500" >
  <font-face 
    font-family="BankGothicMdEU"
    font-weight="400"
    font-stretch="normal"
    units-per-em="1000"
    panose-1="0 0 4 0 0 0 0 0 0 0"
    ascent="800"
    descent="-200"
    x-height="423"
    cap-height="516"
    bbox="-166 -242.001 1242 800"
    underline-thickness="70"
    underline-position="-13"
    unicode-range="U+0020-U+F6C2"
  />
<missing-glyph horiz-adv-x="387" 
 />
    <glyph glyph-name="fi" unicode="fi" horiz-adv-x="841" 
d="M747 0h-103v423h103v-423zM543 347h-345v-110h186v-79h-186v-158h-104v423h449v-76z" />
    <glyph glyph-name="fl" unicode="fl" horiz-adv-x="1102" 
d="M1080 0h-436v423h104v-344h332v-79zM543 347h-345v-110h186v-79h-186v-158h-104v423h449v-76z" />
    <glyph glyph-name=".notdef" horiz-adv-x="387" 
 />
    <glyph glyph-name="space" unicode=" " horiz-adv-x="387" 
 />
    <glyph glyph-name="exclam" unicode="!" horiz-adv-x="384" 
d="M268 516l-37 -306h-80l-37 306h154zM268 34c0 -16.667 -3.33301 -27 -10 -31c-4 -2 -14.667 -3 -32 -3h-88c-16.667 -0 -25 11.333 -25 34v75c0 16.667 3.33301 27 10 31c4 2 14.667 3 32 3h88c16.667 0 25 -11.333 25 -34v-75z" />
    <glyph glyph-name="quotedbl" unicode="&#x22;" horiz-adv-x="300" 
d="M256 430h-68v271h68v-271zM112 430h-68v271h68v-271z" />
    <glyph glyph-name="numbersign" unicode="#" horiz-adv-x="769" 
d="M726 490l-25 -71h-148l-45 -129h157l-25 -71h-157l-79 -220h-81l79 220h-126l-79 -220h-81l78 220h-151l26 71h151l45 129h-161l25 71h162l79 222h81l-79 -222h125l80 222h80l-78 -222h147zM473 419h-127l-45 -129h127z" />
    <glyph glyph-name="dollar" unicode="$" horiz-adv-x="773" 
d="M676 122c0 -48 -9.16699 -80.333 -27.5 -97s-52.166 -25 -101.499 -25h-112v-129h-83v129h-127c-46 -0 -78.333 7.33301 -97 22c-20.667 16 -31 44.667 -31 86v22l100 17v-69h155v137h-107c-49.333 0 -83 8.33301 -101 25s-27 49 -27 97v57c0 48 9 80.333 27 97
s51.667 25 101 25h107v102h83v-102h103c45.333 0 78 -7.5 98 -22.5s30 -41.167 30 -78.5v-23l-94 -21v71h-137v-137h112c49.333 0 83.166 -8.33301 101.499 -25s27.5 -49 27.5 -97v-61zM584 78v137h-149v-137h149zM352 305v137h-144v-137h144z" />
    <glyph glyph-name="percent" unicode="%" horiz-adv-x="799" 
d="M754 138c0 -42 -15.335 -77.998 -46.002 -107.998s-66.667 -45 -108 -45s-77.166 15 -107.499 45s-45.5 66 -45.5 108c0 43.333 14.833 79.666 44.5 108.999s65.834 44 108.501 44s79 -14.833 109 -44.5s45 -65.834 45 -108.501zM648.998 532.002l-435 -547h-65l435 547
h65zM350.998 380.002c0 -42 -15.1689 -78.333 -45.502 -109s-66.166 -46 -107.499 -46s-77.333 15.333 -108 46s-46 67 -46 109c0 42.667 14.833 78.667 44.5 108s66.167 44 109.5 44c42.667 0 78.834 -14.667 108.501 -44s44.5 -65.333 44.5 -108zM685.996 137.002
c0 23.333 -8.5 43.5 -25.5 60.5s-37.167 25.5 -60.5 25.5c-22.667 0 -42.5 -8.5 -59.5 -25.5s-25.5 -37.167 -25.5 -60.5s8.33301 -43.333 25 -60s36.667 -25 60 -25c24 0 44.333 8.33301 61 25s25 36.667 25 60zM282.996 378.002c0 23.333 -8.5 43.5 -25.5 60.5
s-37.167 25.5 -60.5 25.5c-22.667 0 -42.5 -8.5 -59.5 -25.5s-25.5 -37.167 -25.5 -60.5s8.33301 -43.333 25 -60s36.667 -25 60 -25c24 0 44.333 8.33301 61 25s25 36.667 25 60z" />
    <glyph glyph-name="ampersand" unicode="&#x26;" horiz-adv-x="824" 
d="M788 0l-157.001 -0.000976562l-85 72l-46 -41c-15.333 -13.333 -30.333 -22 -45 -26c-10.667 -3.33301 -28 -5 -52 -5h-184c-49.333 0 -83.166 8.33301 -101.499 25s-27.5 49 -27.5 97v34c0 24.667 5 44 15 58c8 10.667 24.333 23.334 49 38.001l105 63
c-29.333 24.667 -44 50.667 -44 78v29c0 36 10.333 61 31 75c18.667 12.667 51 19 97 19h104c48 0 81 -6.66699 99 -20c19.333 -15.333 29 -43.333 29 -84v-31l-93 -16v69h-169v-37l243 -202l120 100l68 -59l-119 -99zM477.999 130.999l-155 129l-132 -82v-88h239z" />
    <glyph glyph-name="quotesingle" unicode="'" horiz-adv-x="155" 
d="M112 430h-68v271h68v-271z" />
    <glyph glyph-name="parenleft" unicode="(" horiz-adv-x="331" 
d="M276 -19h-107c-57.333 88 -86 180.333 -86 277s28.667 189.334 86 278.001h107c-64.667 -96.667 -97 -189.334 -97 -278.001s32.333 -181 97 -277z" />
    <glyph glyph-name="parenright" unicode=")" horiz-adv-x="331" 
d="M249 258c0 -95.333 -29 -187.668 -87 -277.001h-107c64.667 96 97 188.333 97 277s-32.333 181.334 -97 278.001h107c58 -90 87 -182.667 87 -278z" />
    <glyph glyph-name="asterisk" unicode="*" 
d="M414 370l-134 -26l94 -100l-58 -43l-66 120l-66 -120l-59 43l94 100l-133 26l22 68l123 -59l-14 137h66l-15 -137l123 59z" />
    <glyph glyph-name="plus" unicode="+" horiz-adv-x="833" 
d="M709 264h-258v-264h-69v264h-258v68h258v264h69v-264h258v-68z" />
    <glyph glyph-name="comma" unicode="," horiz-adv-x="331" 
d="M242 15l-99 -147h-59l85 151h-57c-16 0 -24 12.333 -24 37v62c0 17.333 2.16699 27.833 6.5 31.5s15.833 5.5 34.5 5.5h89c16 0 24 -12.333 24 -37v-103z" />
    <glyph glyph-name="hyphen" unicode="-" horiz-adv-x="330" 
d="M281 215h-233v103h233v-103z" />
    <glyph glyph-name="period" unicode="." horiz-adv-x="331" 
d="M243 37c0 -17.333 -2.5 -27.833 -7.5 -31.5s-16.5 -5.5 -34.5 -5.5h-89c-16 -0 -24 12.333 -24 37v81c0 17.333 2.5 27.833 7.5 31.5s16.5 5.5 34.5 5.5h89c16 0 24 -12.333 24 -37v-81z" />
    <glyph glyph-name="slash" unicode="/" horiz-adv-x="278" 
d="M302 532l-262 -547h-63l259 547h66z" />
    <glyph glyph-name="zero" unicode="0" horiz-adv-x="773" 
d="M679 122c0 -47.333 -8.33301 -79.5 -25 -96.5s-47.667 -25.5 -93 -25.5h-349c-45.333 0 -76.333 8.5 -93 25.5s-25 49.167 -25 96.5v272c0 47.333 8.33301 79.5 25 96.5s47.667 25.5 93 25.5h349c45.333 0 76.333 -8.5 93 -25.5s25 -49.167 25 -96.5v-272zM571 93v335
h-369v-335h369z" />
    <glyph glyph-name="one" unicode="1" horiz-adv-x="773" 
d="M463 0h-109v418h-110v69l219 33v-520z" />
    <glyph glyph-name="two" unicode="2" horiz-adv-x="773" 
d="M666 101c0 -40 -8.33301 -66.833 -25 -80.5s-47.667 -20.5 -93 -20.5h-434v47c0 20 3.33301 35.333 10 46c8.66699 14.667 27 30.667 55 48l357 220v67h-294v-106l-102 26v67c0 40 8.33301 66.833 25 80.5s47.667 20.5 93 20.5h265c45.333 0 76.333 -6.83301 93 -20.5
s25 -40.5 25 -80.5v-33c0 -28 -5 -49.333 -15 -64c-8 -11.333 -25.333 -25 -52 -41l-303 -184h300v76l95 -27v-41z" />
    <glyph glyph-name="three" unicode="3" horiz-adv-x="773" 
d="M653 111c0 -41.333 -8.33301 -69.668 -25 -85.001c-18 -17.333 -51.333 -26 -100 -26h-300c-45.333 0 -76.333 6.83301 -93 20.5s-25 40.5 -25 80.5v42l106 22v-72h278c21.333 0 35 3.33301 41 10s9 18.667 9 36v38c0 20.667 -4 33.667 -12 39s-20.667 8 -38 8h-174v84
h155c25.333 0 40.333 6 45 18c2.66699 6.66699 4 16.334 4 29.001v26c0 17.333 -2.83301 29.5 -8.5 36.5s-19.167 10.5 -40.5 10.5h-255v-64l-102 19v32c0 40 8.33301 66.833 25 80.5s47.667 20.5 93 20.5h279c45.333 0 76.333 -6.83301 93 -20.5s25 -40.5 25 -80.5v-47
c0 -30.667 -7.33301 -53.167 -22 -67.5s-40.667 -24.5 -78 -30.5c80 -8 120 -43 120 -105v-54z" />
    <glyph glyph-name="four" unicode="4" horiz-adv-x="773" 
d="M706 114h-125v-119h-109v119h-391v86l387 322h113v-322h125v-86zM472 200v231l-282 -231h282z" />
    <glyph glyph-name="five" unicode="5" horiz-adv-x="773" 
d="M689 166c0 -61.333 -22.834 -105.332 -68.501 -131.999s-117.5 -40 -215.5 -40c-106.667 0 -189.667 6.66699 -249 20l-26 100c99.333 -18 190 -27 272 -27c62.667 0 107.667 6.16699 135 18.5s41 34.166 41 65.499c0 29.333 -14 50.333 -42 63
c-25.333 11.333 -67.666 17 -126.999 17c-78.667 0 -171.667 -7 -279 -21l29 286h446l-9 -88h-360l-12 -100c85.333 8.66699 155 13 209 13c170.667 0 256 -58.333 256 -175z" />
    <glyph glyph-name="six" unicode="6" horiz-adv-x="773" 
d="M676 126c0 -84 -58.999 -125.999 -176.999 -125.999h-218c-64.667 0 -109.167 11.167 -133.5 33.5s-36.5 64.166 -36.5 125.499v68c0 96 33.167 170.333 99.5 223s160.166 79 281.499 79c8.66699 0 21 -0.666992 37 -2l71 -83h-33c-102.667 0 -178 -8.66699 -226 -26
c-55.333 -19.333 -92.333 -55 -111 -107c78.667 12 154.667 18 228 18c80.667 0 137.167 -9.33301 169.5 -28s48.5 -53.667 48.5 -105v-70zM566.001 155.001v28c0 25.333 -7.83301 42 -23.5 50s-45.834 12 -90.501 12c-73.333 0 -149.666 -4 -228.999 -12
c-1.33301 -8 -2 -18 -2 -30c0 -46.667 5.83301 -76.667 17.5 -90s41.5 -20 89.5 -20h144c36.667 0 61.5 4.5 74.5 13.5s19.5 25.167 19.5 48.5z" />
    <glyph glyph-name="seven" unicode="7" horiz-adv-x="773" 
d="M679 433l-270 -441h-131l278 436h-341v-111l-109 19v180h573v-83z" />
    <glyph glyph-name="eight" unicode="8" horiz-adv-x="773" 
d="M677 111c0 -40.667 -8.83203 -69.332 -26.499 -85.999s-50.834 -25 -99.501 -25h-330c-48.667 0 -82 8.66699 -100 26c-16.667 15.333 -25 43.666 -25 84.999v54c0 60.667 36.667 95 110 103c-36 7.33301 -61.5 18.333 -76.5 33s-22.5 37 -22.5 67v47
c0 40 8.33301 66.833 25 80.5s47.667 20.5 93 20.5h322c45.333 0 76.333 -6.83301 93 -20.5s25 -40.5 25 -80.5v-47c0 -30 -7.33301 -52.333 -22 -67s-40 -25.667 -76 -33c73.333 -8 110 -42.333 110 -103v-54zM556.001 355.002l-0.000976562 26
c0 17.333 -2.83301 29.5 -8.5 36.5s-19.167 10.5 -40.5 10.5h-241c-25.333 0 -40.666 -6 -45.999 -18c-2.66699 -6.66699 -4 -16.334 -4 -29.001v-26c0 -20.667 4 -33.667 12 -39s20.667 -8 38 -8h241c25.333 0 40.333 6 45 18c2.66699 6.66699 4 16.334 4 29.001z
M567 139.002l-0.000976562 38.001c0 17.333 -2.83301 29.5 -8.5 36.5s-19.167 10.5 -40.5 10.5h-264c-25.333 0 -40.333 -6 -45 -18c-2.66699 -6.66699 -4 -16.334 -4 -29.001v-38c0 -22 4.66699 -35.333 14 -40c6.66699 -4 18.334 -6 35.001 -6h264
c21.333 0 34.833 3.33301 40.5 10s8.5 18.667 8.5 36z" />
    <glyph glyph-name="nine" unicode="9" horiz-adv-x="773" 
d="M671 289c0 -96 -33.168 -170 -99.501 -222s-160.166 -78 -281.499 -78c-16.667 0 -29 0.333008 -37 1l-71 82h33c102.667 0 178 8.66699 226 26c56 19.333 93.333 55 112 107c-74 -11.333 -150 -17 -228 -17c-80.667 0 -136.667 9 -168 27
c-33.333 19.333 -50 54.666 -50 105.999v69c0 84 58.667 126 176 126h218c64.667 0 109.167 -11.167 133.5 -33.5s36.5 -64.166 36.5 -125.499v-68zM561.999 315c0 48 -6 78.833 -18 92.5s-42 20.5 -90 20.5h-143c-36.667 0 -61.667 -4.66699 -75 -14s-20 -26 -20 -50v-29
c0 -26 8 -43.167 24 -51.5s46.333 -12.5 91 -12.5c66 0 142 4.33301 228 13c2 12 3 22.333 3 31z" />
    <glyph glyph-name="colon" unicode=":" horiz-adv-x="331" 
d="M243 306c0 -17.333 -2.5 -27.833 -7.5 -31.5s-16.5 -5.5 -34.5 -5.5h-89c-16 0 -24 12.333 -24 37v81c0 17.333 2.5 27.833 7.5 31.5s16.5 5.5 34.5 5.5h89c16 0 24 -12.333 24 -37v-81zM243 37c0 -17.333 -2.5 -27.833 -7.5 -31.5s-16.5 -5.5 -34.5 -5.5h-89
c-16 -0 -24 12.333 -24 37v81c0 17.333 2.5 27.833 7.5 31.5s16.5 5.5 34.5 5.5h89c16 0 24 -12.333 24 -37v-81z" />
    <glyph glyph-name="semicolon" unicode=";" horiz-adv-x="331" 
d="M242 306c0 -17.333 -2.16699 -27.833 -6.5 -31.5s-15.833 -5.5 -34.5 -5.5h-89c-16 0 -24 12.333 -24 37v81c0 17.333 2.16699 27.833 6.5 31.5s15.833 5.5 34.5 5.5h89c16 0 24 -12.333 24 -37v-81zM242 15l-99 -147h-59l85 151h-57c-16 0 -24 12.333 -24 37v62
c0 17.333 2.16699 27.833 6.5 31.5s15.833 5.5 34.5 5.5h89c16 0 24 -12.333 24 -37v-103z" />
    <glyph glyph-name="less" unicode="&#x3c;" horiz-adv-x="833" 
d="M704 31l-575 236v63l575 236v-75l-473 -193l473 -192v-75z" />
    <glyph glyph-name="equal" unicode="=" horiz-adv-x="833" 
d="M709 361h-585v68h585v-68zM709 167h-585v68h585v-68z" />
    <glyph glyph-name="greater" unicode="&#x3e;" horiz-adv-x="833" 
d="M704 267l-575 -236v75l474 192l-474 193v75l575 -236v-63z" />
    <glyph glyph-name="question" unicode="?" horiz-adv-x="662" 
d="M542 338l-175 -102v-27h-103v72l173 105v45h-230v-65l-101 16v28c0 70.667 36 106 108 106h204c82.667 0 124 -32 124 -96v-82zM391 34c0 -16.667 -2.5 -26.5 -7.5 -29.5s-16.167 -4.5 -33.5 -4.5h-88c-16.667 -0 -25 11.333 -25 34v75c0 16.667 3 26.667 9 30
c4 2.66699 14.667 4 32 4h89c16 0 24 -11.333 24 -34v-75z" />
    <glyph glyph-name="at" unicode="@" horiz-adv-x="1000" 
d="M949 381c0 -115.333 -40.335 -205.001 -121.002 -269.001c-46.667 -36.667 -98 -55 -154 -55c-65.333 0 -98 25.667 -98 77v9c-35.333 -56.667 -84.333 -85 -147 -85c-102 0 -153 54 -153 162c0 76.667 22.5 140.834 67.5 192.501s100.167 77.5 165.5 77.5
c55.333 0 94.666 -24.333 117.999 -73l28 56h64l-71 -281c-2.66699 -10.667 -4 -20.334 -4 -29.001c0 -30.667 16.333 -46 49 -46s66.667 16.667 102 50c55.333 52 83 120.333 83 205c0 84 -30.833 152.333 -92.5 205s-143.167 79 -244.5 79
c-86 0 -160.167 -18.667 -222.5 -56s-110.666 -86.166 -144.999 -146.499s-51.5 -126.833 -51.5 -199.5c0 -112 41.333 -199.333 124 -262c68 -52 153.333 -78 256 -78c113.333 0 214.333 30.667 303 92l27 -39c-96.667 -72.667 -204.667 -109 -324 -109
c-125.333 0 -227.666 30.333 -306.999 91c-99.333 75.333 -149 177.333 -149 306c0 108.667 33 203.334 99 284.001c96.667 118 228 177 394 177c110.667 0 202.334 -28 275.001 -84c86 -66.667 129 -150.334 129 -251.001zM609.998 346.999
c-11.333 60 -43.666 89.999 -96.999 89.999c-44.667 0 -82.334 -21.167 -113.001 -63.5s-46 -94.166 -46 -155.499c0 -71.333 30.333 -107 91 -107c31.333 0 59.5 11.167 84.5 33.5s42.167 51.5 51.5 87.5z" />
    <glyph glyph-name="A" unicode="A" horiz-adv-x="771" 
d="M737 0h-135l-62 113h-327l-60 -113h-120l292 516h116zM490 206l-111 210l-115 -210h226z" />
    <glyph glyph-name="B" unicode="B" horiz-adv-x="794" 
d="M694 101c0 -67.333 -50.667 -101 -152 -101h-410v516h442c77.333 0 116 -33.333 116 -100v-63c0 -50.667 -29.667 -79.667 -89 -87c62 -8 93 -41 93 -99v-66zM579 346v49c0 24.667 -18.333 37 -55 37h-274v-123h274c36.667 0 55 12.333 55 37zM582 139v39
c0 19.333 -5.33301 32.333 -16 39c-8 4.66699 -22 7 -42 7h-274v-131h274c20 0 34 2.33301 42 7c10.667 6.66699 16 19.667 16 39z" />
    <glyph glyph-name="C" unicode="C" horiz-adv-x="801" 
d="M685 122c0 -48 -9 -80.333 -27 -97s-51.667 -25 -101 -25h-308c-49.333 -0 -83 8.33301 -101 25s-27 49 -27 97v272c0 48 9 80.333 27 97s51.667 25 101 25h308c49.333 0 83 -8.33301 101 -25s27 -49 27 -97v-49l-120 -19v98h-324v-327h324v111l120 -25v-61z" />
    <glyph glyph-name="D" unicode="D" horiz-adv-x="847" 
d="M759 261c0 -51.333 -11.668 -97.999 -35.001 -139.999c-25.333 -44 -60.666 -75.667 -105.999 -95c-41.333 -17.333 -103 -26 -185 -26h-301v516h332c95.333 0 168.333 -22.333 219 -67s76 -107.334 76 -188.001zM634.999 263.001c0 107.333 -56.667 161 -170 161h-213
v-327h155c79.333 0 136.333 11.667 171 35c38 25.333 57 69 57 131z" />
    <glyph glyph-name="E" unicode="E" horiz-adv-x="755" 
d="M665 0h-533v516h528v-88h-408v-115h238v-88h-238v-128h413v-97z" />
    <glyph glyph-name="F" unicode="F" horiz-adv-x="671" 
d="M654 426h-402v-136h217v-94h-217v-196h-120v516h522v-90z" />
    <glyph glyph-name="G" unicode="G" horiz-adv-x="855" 
d="M733 122c0 -48 -9 -80.334 -27 -97.001s-51.667 -25 -101 -25h-356c-49.333 0 -83 8.33301 -101 25s-27 49 -27 97v272c0 48 9 80.333 27 97s51.667 25 101 25h356c48 0 81.333 -8.16699 100 -24.5s28 -47.166 28 -92.499v-12l-117 -21v58h-375v-327h375v115h-196v88h313
v-178z" />
    <glyph glyph-name="H" unicode="H" horiz-adv-x="880" 
d="M748 0h-121v222h-375v-222h-120v516h120v-200h375v200h121v-516z" />
    <glyph glyph-name="I" unicode="I" horiz-adv-x="384" 
d="M252 0h-120v516h120v-516z" />
    <glyph glyph-name="J" unicode="J" horiz-adv-x="667" 
d="M556 122c0 -48 -9 -80.333 -27 -97s-51.667 -25 -101 -25h-221c-49.333 -0 -83 8.33301 -101 25s-27 49 -27 97v107l121 23v-155h236v419h120v-394z" />
    <glyph glyph-name="K" unicode="K" horiz-adv-x="794" 
d="M755 0h-193l-309 227v-227h-121v516h121v-215l286 215h174l-342 -243z" />
    <glyph glyph-name="L" unicode="L" horiz-adv-x="683" 
d="M639 0h-507v516h120v-419h387v-97z" />
    <glyph glyph-name="M" unicode="M" horiz-adv-x="926" 
d="M805 0l-111 -0.000976562v319c0 12.667 1.33301 31 4 55c-12.667 -26 -22.667 -44 -30 -54l-194 -258h-24l-194 259c-14 18.667 -24.333 36.334 -31 53.001c2 -20.667 3 -39 3 -55v-319h-97v516h97l243 -312l238 312h96v-516z" />
    <glyph glyph-name="N" unicode="N" horiz-adv-x="869" 
d="M738 0l-82 -0.000976562l-379 319c-16 13.333 -30.333 27.333 -43 42c3.33301 -33.333 5 -60.666 5 -81.999v-279h-108v516h82l363 -304c26 -22 45.667 -40.667 59 -56c-3.33301 48 -5 77.667 -5 89v271h108v-516z" />
    <glyph glyph-name="O" unicode="O" horiz-adv-x="878" 
d="M757 122c0 -48 -9 -80.333 -27 -97s-51.667 -25 -101 -25h-380c-49.333 -0 -83 8.33301 -101 25s-27 49 -27 97v272c0 48 9 80.333 27 97s51.667 25 101 25h380c49.333 0 83 -8.33301 101 -25s27 -49 27 -97v-272zM637 97v327h-396v-327h396z" />
    <glyph glyph-name="P" unicode="P" horiz-adv-x="743" 
d="M690 301c0 -66.667 -38.667 -100 -116 -100h-324v-201h-118v516h442c77.333 0 116 -33.333 116 -100v-115zM574 331v55c0 17.333 -5 29 -15 35c-7.33301 4 -20.333 6 -39 6h-270v-137h270c18.667 0 31.667 2 39 6c10 6 15 17.667 15 35z" />
    <glyph glyph-name="Q" unicode="Q" horiz-adv-x="878" 
d="M757 122c0 -48 -9 -80.333 -27 -97s-51.667 -25 -101 -25h-56l65 -132h-119l-58 132h-212c-49.333 -0 -83 8.33301 -101 25s-27 49 -27 97v272c0 48 9 80.333 27 97s51.667 25 101 25h380c49.333 0 83 -8.33301 101 -25s27 -49 27 -97v-272zM637 97v327h-396v-327h177
l-48 112l87 35l70 -147h110z" />
    <glyph glyph-name="R" unicode="R" horiz-adv-x="802" 
d="M744 0h-172l-208 195h-114v-195h-118v516h442c77.333 0 116 -33.333 116 -100v-121c0 -66.667 -38.667 -100 -116 -100h-68zM574 324v62c0 17.333 -5 29 -15 35c-7.33301 4 -20.333 6 -39 6h-270v-144h270c18.667 0 31.667 2 39 6c10 6 15 17.667 15 35z" />
    <glyph glyph-name="S" unicode="S" horiz-adv-x="809" 
d="M692 122c0 -48 -9.16797 -80.333 -27.501 -97s-52.166 -25 -101.499 -25h-319c-49.333 -0 -83.166 8.33301 -101.499 25s-27.5 49 -27.5 97v14l106 22v-61h365v118h-322c-49.333 0 -83 8.33301 -101 25s-27 49 -27 97v57c0 48 9 80.333 27 97s51.667 25 101 25h293
c47.333 0 80.5 -8 99.5 -24s28.5 -45.667 28.5 -89v-11l-106 -25v59h-338v-111h322c49.333 0 83.166 -8.33301 101.499 -25s27.5 -49 27.5 -97v-71z" />
    <glyph glyph-name="T" unicode="T" horiz-adv-x="625" 
d="M610 424h-238v-424h-120v424h-237v92h595v-92z" />
    <glyph glyph-name="U" unicode="U" horiz-adv-x="846" 
d="M714 122c0 -48 -9 -80.333 -27 -97s-51.667 -25 -101 -25h-326c-49.333 -0 -83 8.33301 -101 25s-27 49 -27 97v394h120v-419h342v419h120v-394z" />
    <glyph glyph-name="V" unicode="V" horiz-adv-x="681" 
d="M673 516l-284 -516h-83l-298 516h137l209 -373l199 373h120z" />
    <glyph glyph-name="W" unicode="W" horiz-adv-x="926" 
d="M887 516l-199 -516h-81l-142 357l-144 -357h-83l-199 516h124l131 -346l137 346h84l140 -346l125 346h107z" />
    <glyph glyph-name="X" unicode="X" horiz-adv-x="718" 
d="M721 0h-163l-189 200l-174 -200h-142l245 265l-249 251h159l165 -175l157 175h138l-225 -237z" />
    <glyph glyph-name="Y" unicode="Y" horiz-adv-x="672" 
d="M664 516l-267 -282v-234h-121v231l-268 285h160l177 -198l178 198h141z" />
    <glyph glyph-name="Z" unicode="Z" horiz-adv-x="682" 
d="M615 0h-554v56l361 368h-325v92h518v-51l-366 -368h366v-97z" />
    <glyph glyph-name="bracketleft" unicode="[" horiz-adv-x="331" 
d="M315 -15h-221v547h221v-71h-125v-403h125v-73z" />
    <glyph glyph-name="backslash" unicode="\" horiz-adv-x="278" 
d="M302 -15h-64l-261 547h65z" />
    <glyph glyph-name="bracketright" unicode="]" horiz-adv-x="331" 
d="M237 -15h-221v73h125v403h-125v71h221v-547z" />
    <glyph glyph-name="asciicircum" unicode="^" horiz-adv-x="1000" 
d="M794 440h-88l-206 205l-207 -205h-88l249 272h91z" />
    <glyph glyph-name="underscore" unicode="_" 
d="M500 -235h-500v70h500v-70z" />
    <glyph glyph-name="grave" unicode="`" 
d="M322 478h-64l-144 169h108z" />
    <glyph glyph-name="a" unicode="a" horiz-adv-x="646" 
d="M635 0h-116l-53 93h-280l-53 -93h-103l251 423h99zM424 170l-99 176l-95 -176h194z" />
    <glyph glyph-name="b" unicode="b" horiz-adv-x="657" 
d="M577 83c0 -55.333 -43.667 -83 -131 -83h-352v423h380c66.667 0 100 -27.333 100 -82v-51c0 -39.333 -24 -63.333 -72 -72c50 -8 75 -35 75 -81v-54zM473 284v40c0 20 -15.333 30 -46 30h-231v-100h231c30.667 0 46 10 46 30zM477 114v32c0 16 -4.66699 26.667 -14 32
c-6.66699 4 -18.667 6 -36 6h-231v-108h231c17.333 0 29.333 2 36 6c9.33301 5.33301 14 16 14 32z" />
    <glyph glyph-name="c" unicode="c" horiz-adv-x="644" 
d="M569 100c0 -39.333 -7.83301 -65.833 -23.5 -79.5s-44.834 -20.5 -87.501 -20.5h-264c-42.667 0 -71.667 7 -87 21s-23 40.333 -23 79v223c0 39.333 7.66699 65.833 23 79.5s44.333 20.5 87 20.5h264c42.667 0 71.834 -6.83301 87.501 -20.5s23.5 -40.167 23.5 -79.5v-41
l-104 -15v78h-278v-264h278v90l104 -21v-50z" />
    <glyph glyph-name="d" unicode="d" horiz-adv-x="694" 
d="M633 213c0 -142 -93.333 -212.999 -280 -212.999h-259v423h285c82.667 0 145.667 -18.333 189 -55s65 -88.334 65 -155.001zM527 218.001c0 86 -49 129 -147 129h-182v-268h133c68.667 0 117.667 9.33301 147 28c32.667 21.333 49 58.333 49 111z" />
    <glyph glyph-name="e" unicode="e" horiz-adv-x="608" 
d="M553 0h-459v423h454v-75h-350v-92h204v-73h-204v-104h355v-79z" />
    <glyph glyph-name="f" unicode="f" horiz-adv-x="550" 
d="M543 347h-345v-110h186v-79h-186v-158h-104v423h449v-76z" />
    <glyph glyph-name="g" unicode="g" horiz-adv-x="692" 
d="M610 100c0 -39.333 -7.66699 -65.833 -23 -79.5s-44.333 -20.5 -87 -20.5h-306c-42.667 -0 -71.667 6.83301 -87 20.5s-23 40.167 -23 79.5v223c0 39.333 7.83301 65.833 23.5 79.5s44.5 20.5 86.5 20.5h306c41.333 0 70 -6.5 86 -19.5s24 -38.167 24 -75.5v-11l-101 -17
v45h-322v-264h322v90h-168v75h269v-146z" />
    <glyph glyph-name="h" unicode="h" horiz-adv-x="718" 
d="M623 0h-103v178h-322v-178h-104v423h104v-161h322v161h103v-423z" />
    <glyph glyph-name="i" unicode="i" horiz-adv-x="291" 
d="M197 0h-103v423h103v-423z" />
    <glyph glyph-name="j" unicode="j" horiz-adv-x="560" 
d="M465 100c0 -39.333 -7.83105 -65.833 -23.498 -79.5s-44.834 -20.5 -87.501 -20.5h-188c-42.667 -0 -71.834 6.83301 -87.501 20.5s-23.5 40.167 -23.5 79.5v88l104 19v-128h202v344h104v-323z" />
    <glyph glyph-name="k" unicode="k" horiz-adv-x="620" 
d="M627 0h-163l-266 191v-191h-104v423h104v-171l247 171h149l-292 -196z" />
    <glyph glyph-name="l" unicode="l" horiz-adv-x="552" 
d="M530 0h-436v423h104v-344h332v-79z" />
    <glyph glyph-name="m" unicode="m" horiz-adv-x="767" 
d="M673 0h-96v291l-189 -240h-20l-191 233v-284h-83v423h83l207 -251l206 251h83v-423z" />
    <glyph glyph-name="n" unicode="n" horiz-adv-x="712" 
d="M617 0h-71l-358 285v-285h-94v423h71l359 -281v281h93v-423z" />
    <glyph glyph-name="o" unicode="o" horiz-adv-x="715" 
d="M631 100c0 -39.333 -7.83301 -65.833 -23.5 -79.5s-44.5 -20.5 -86.5 -20.5h-327c-42.667 -0 -71.667 6.83301 -87 20.5s-23 40.167 -23 79.5v223c0 40 7.66699 66.667 23 80s44.333 20 87 20h327c42.667 0 71.667 -6.66699 87 -20s23 -40 23 -80v-223zM528 81v264h-341
v-264h341z" />
    <glyph glyph-name="p" unicode="p" horiz-adv-x="628" 
d="M574 247c0 -54.667 -33.001 -82 -99.001 -82h-279v-165h-102v423h381c34.667 0 59.834 -6.33301 75.501 -19s23.5 -33.667 23.5 -63v-94zM477.999 272v44c0 22.667 -15.667 34 -47 34h-235v-112h235c31.333 0 47 11.333 47 34z" />
    <glyph glyph-name="q" unicode="q" horiz-adv-x="715" 
d="M631 101c0 -39.333 -7.83301 -65.833 -23.5 -79.5s-44.5 -20.5 -86.5 -20.5h-50l57 -108h-103l-48 108h-183c-42.667 0 -71.667 6.83301 -87 20.5s-23 40.167 -23 79.5v222c0 40 7.83301 66.667 23.5 80s44.5 20 86.5 20h327c42 0 70.833 -6.5 86.5 -19.5
s23.5 -39.833 23.5 -80.5v-222zM528 81v264h-341v-264h155l-44 91l74 28l58 -119h98z" />
    <glyph glyph-name="r" unicode="r" horiz-adv-x="650" 
d="M618 0h-148l-177 160h-97v-160h-102v423h381c66 0 99 -27.333 99 -82v-100c0 -54 -33 -81 -99 -81h-58zM478 267v49c0 22.667 -15.667 34 -47 34h-235v-117h235c31.333 0 47 11.333 47 34z" />
    <glyph glyph-name="s" unicode="s" horiz-adv-x="663" 
d="M579 100c0 -39.333 -7.66699 -65.833 -23 -79.5s-44.333 -20.5 -87 -20.5h-275c-42.667 -0 -71.834 6.83301 -87.501 20.5s-23.5 40.167 -23.5 79.5v12l92 17v-50h311v97h-274c-42 0 -71 6.83301 -87 20.5s-24 40.167 -24 79.5v47c0 39.333 8 65.833 24 79.5
s45 20.5 87 20.5h251c40.667 0 69.334 -6.33301 86.001 -19s25 -37 25 -73v-10l-89 -19v45h-291v-89h275c42.667 0 71.667 -6.83301 87 -20.5s23 -40.167 23 -79.5v-58z" />
    <glyph glyph-name="t" unicode="t" horiz-adv-x="590" 
d="M551 347h-205v-347h-103v347h-204v76h512v-76z" />
    <glyph glyph-name="u" unicode="u" horiz-adv-x="689" 
d="M595 100c0 -39.333 -7.83203 -65.833 -23.499 -79.5s-44.834 -20.5 -87.501 -20.5h-280c-42.667 -0 -71.667 6.83301 -87 20.5s-23 40.167 -23 79.5v323h103v-344h294v344h104v-323z" />
    <glyph glyph-name="v" unicode="v" horiz-adv-x="632" 
d="M608 423l-245 -423h-71l-256 423h117l179 -307l169 307h107z" />
    <glyph glyph-name="w" unicode="w" horiz-adv-x="789" 
d="M765 423l-170 -423h-70l-122 299l-124 -299h-71l-172 423h108l111 -295l119 295h71l118 -295l109 295h93z" />
    <glyph glyph-name="x" unicode="x" horiz-adv-x="638" 
d="M625 0h-141l-162 158l-149 -158h-122l209 217l-213 206h138l142 -137l134 137h119l-193 -194z" />
    <glyph glyph-name="y" unicode="y" horiz-adv-x="593" 
d="M587 423l-230 -231v-192h-103v190l-231 233h139l151 -158l153 158h121z" />
    <glyph glyph-name="z" unicode="z" horiz-adv-x="616" 
d="M547 0h-477v46l310 301h-279v76h446v-42l-316 -303h316v-78z" />
    <glyph glyph-name="braceleft" unicode="{" 
d="M423 -201h-20.998c-62.667 0 -107 8 -133 24c-20.667 12.667 -34.334 31.667 -41.001 57c-5.33301 19.333 -8 50.333 -8 93v119c0 48 -8.66699 82 -26 102s-47.666 30 -90.999 30h-10c-4.66699 -0.666992 -8.33398 -1 -11.001 -1v73h11c5.33301 -0.666992 9 -1 11 -1
c42.667 0 72.667 9.83301 90 29.5s26 53.5 26 101.5v120c0 42.667 2.66699 73.667 8 93c6.66699 25.333 20.334 44.333 41.001 57c27.333 16.667 72.666 25 135.999 25h18v-73h-20c-40.667 0 -67.334 -7.66699 -80.001 -23s-19 -45 -19 -89v-118
c0 -48.667 -6.33301 -84 -19 -106c-14 -25.333 -40.333 -43 -79 -53c39.333 -10 66 -27.333 80 -52c12 -22 18 -57.667 18 -107v-117c0 -44 6.33301 -73.667 19 -89s39.667 -23 81 -23h19v-72z" />
    <glyph glyph-name="bar" unicode="|" 
d="M287 -235h-73v999h73v-999z" />
    <glyph glyph-name="braceright" unicode="}" 
d="M419 223c-2.66699 0 -6.33398 0.332031 -11.001 0.999023h-10c-43.333 0 -73.666 -10 -90.999 -30s-26 -54 -26 -102v-119c0 -42.667 -2.66699 -73.667 -8 -93c-6.66699 -25.333 -20.334 -44.333 -41.001 -57c-26 -16 -70.333 -24 -133 -24h-21v72h19
c40.667 0 68 8 82 24c12 15.333 18 45 18 89v116c0 48.667 6.66699 84.834 20 108.501s39.333 40.5 78 50.5c-38.667 10 -65 27.667 -79 53c-12.667 22 -19 57.333 -19 106v118c0 44 -6 73.333 -18 88c-14 16 -41.333 24 -82 24h-19v73h18c64 0 109.333 -8.33301 136 -25
c20.667 -12.667 34.334 -31.667 41.001 -57c5.33301 -19.333 8 -50.333 8 -93v-120c0 -48 8.66699 -81.833 26 -101.5s47.333 -29.5 90 -29.5c2 0 5.66699 0.333008 11 1h11v-73z" />
    <glyph glyph-name="asciitilde" unicode="~" horiz-adv-x="833" 
d="M747 300c-66 -46 -129.332 -69 -189.999 -69c-28 0 -75 11.333 -141 34c-62 21.333 -109 32 -141 32c-52.667 0 -115.334 -25.667 -188.001 -77v76c68.667 46.667 131.667 70 189 70c36.667 0 85.667 -11 147 -33s106.333 -33 135 -33c54.667 0 117.667 25.333 189 76
v-76z" />
    <glyph glyph-name="nonbreakingspace" unicode="&#xa0;" horiz-adv-x="387" 
 />
    <glyph glyph-name="exclamdown" unicode="&#xa1;" horiz-adv-x="384" 
d="M268 408c0 -16.667 -3.33301 -27 -10 -31c-4 -2 -14.667 -3 -32 -3h-88c-16.667 0 -25 11.333 -25 34v74c0 16.667 3.33301 27 10 31c4 2 14.667 3 32 3h88c16.667 0 25 -11.333 25 -34v-74zM268 0h-155l38 306h79z" />
    <glyph glyph-name="cent" unicode="&#xa2;" horiz-adv-x="773" 
d="M572 63c0 -25.333 -7.33301 -42.667 -22 -52c-12 -7.33301 -31.667 -11 -59 -11h-134l-35 -100h-54l35 100h-26c-28.667 -0 -48.5 6.33301 -59.5 19s-16.5 33.667 -16.5 63v184c0 32.667 8 54.667 24 66c12.667 9.33301 36.667 14 72 14h125l28 82h54l-28 -82
c36 0 60 -3.33301 72 -10c16 -10 24 -31.333 24 -64v-45l-88 -14v54h-35l-65 -186h100v68l88 -21v-65zM395 266.999h-99v-186h35z" />
    <glyph glyph-name="sterling" unicode="&#xa3;" horiz-adv-x="773" 
d="M717 119c0 -84 -55.333 -126 -166 -126c-80 0 -179.333 17 -298 51c-42 -36.667 -88.333 -55 -139 -55h-9v102c40.667 3.33301 69.5 13.333 86.5 30s25.5 42.667 25.5 78l-2 28h-111v79h105c-2.66699 21.333 -4 43.333 -4 66c0 50.667 12.667 87.334 38 110.001
s66 34 122 34h175c91.333 0 137 -33.333 137 -100v-47l-101 -17v30c0 21.333 -7 35.666 -21 42.999c-10 5.33301 -26.667 8 -50 8h-114c-34 0 -56.833 -5.16699 -68.5 -15.5s-17.5 -31.5 -17.5 -63.5c0 -16.667 1.33301 -32.667 4 -48h146v-79h-142
c-1.33301 -40.667 -7 -75 -17 -103c85.333 -23.333 162.666 -35 231.999 -35c32.667 0 54.334 2.66699 65.001 8c17.333 8.66699 26 27.667 26 57v20l98 -18v-37z" />
    <glyph glyph-name="currency" unicode="&#xa4;" horiz-adv-x="773" 
d="M691 122c0 -47.333 -9 -79.5 -27 -96.5s-51.667 -25.5 -101 -25.5h-330c-49.333 0 -83 8.5 -101 25.5s-27 49.167 -27 96.5v43h-87l29 65h58v57h-87l29 64h58v43c0 47.333 9 79.5 27 96.5s51.667 25.5 101 25.5h330c49.333 0 83 -8.5 101 -25.5s27 -49.167 27 -96.5v-49
l-109 -19v98h-369v-73h230l-29 -64h-201v-57h176l-29 -65h-147v-72h369v115l109 -25v-61z" />
    <glyph glyph-name="yen" unicode="&#xa5;" horiz-adv-x="773" 
d="M710 516l-135 -144h109v-65h-169l-72 -77h241v-65h-241v-165h-111v165h-242v65h242l-72 77h-170v65h109l-136 144h158l175 -203l174 203h140z" />
    <glyph glyph-name="brokenbar" unicode="&#xa6;" 
d="M287 329h-73v370h73v-370zM287 -170h-73v369h73v-369z" />
    <glyph glyph-name="section" unicode="&#xa7;" 
d="M442 222c0 -54.667 -34.667 -88.6689 -104 -102.002c41.333 -20 62 -52 62 -96c0 -31.333 -13.833 -58 -41.5 -80s-63.167 -33 -106.5 -33c-67.333 0 -126 23 -176 69l58 53c37.333 -36 76.333 -54 117 -54c19.333 0 34.833 4.16699 46.5 12.5s17.5 18.833 17.5 31.5
c0 14.667 -8.66699 27.334 -26 38.001c-8.66699 5.33301 -33 16.333 -73 33c-55.333 22.667 -94 43.334 -116 62.001c-26 22.667 -39 49.667 -39 81c0 56.667 33.333 90.334 100 101.001c-37.333 23.333 -56 53 -56 89c0 31.333 12.833 57 38.5 77s59.5 30 101.5 30
c62 0 115.333 -19.667 160 -59l-58 -51c-34.667 32 -67.667 48 -99 48c-40 0 -60 -14 -60 -42c0 -14 7.66699 -25.667 23 -35c10 -7.33301 31.333 -17.333 64 -30c59.333 -23.333 100.333 -43.333 123 -60c29.333 -22.667 44 -50.334 44 -83.001zM372 193.998
c0 21.333 -23.334 44.333 -70.001 69c-49.333 26 -91 39 -125 39c-30 0 -45 -13 -45 -39c0 -21.333 19.667 -43 59 -65c50.667 -28 94.334 -42 131.001 -42c33.333 0 50 12.667 50 38z" />
    <glyph glyph-name="dieresis" unicode="&#xa8;" 
d="M383 501h-100v112h100v-112zM217 501h-100v112h100v-112z" />
    <glyph glyph-name="copyright" unicode="&#xa9;" horiz-adv-x="833" 
d="M777 355c0 -100 -34.667 -184 -104 -252c-73.333 -71.333 -159 -107 -257 -107c-97.333 0 -181.5 35.333 -252.5 106s-106.5 155 -106.5 253c0 98.667 35.667 184 107 256c68.667 69.333 152.667 104 252 104c100.667 0 186 -35 256 -105s105 -155 105 -255zM729 355
c0 87.333 -30.332 161.334 -90.999 222.001s-134.334 91 -221.001 91c-86 0 -159 -30 -219 -90c-62.667 -62.667 -94 -137 -94 -223c0 -84.667 30.833 -157.834 92.5 -219.501s135.167 -92.5 220.5 -92.5c84.667 0 158.667 31 222 93c60 58.667 90 131.667 90 219z
M590.001 279.001c-3.33301 -42.667 -21 -77.1689 -53 -103.502s-72.333 -39.5 -121 -39.5c-58.667 0 -105 19.5 -139 58.5s-51 93.5 -51 163.5c0 65.333 17.833 117.833 53.5 157.5s82.167 59.5 139.5 59.5c46.667 0 85.334 -12.167 116.001 -36.5
s47.667 -56.166 51 -95.499h-72c-8 52 -41.333 78 -100 78c-33.333 0 -60 -14.5 -80 -43.5s-30 -69.833 -30 -122.5c0 -51.333 10.167 -91.166 30.5 -119.499s48.5 -42.5 84.5 -42.5c57.333 0 90.666 28.667 99.999 86h71z" />
    <glyph glyph-name="ordfeminine" unicode="&#xaa;" horiz-adv-x="426" 
d="M419 206h-76l-35 56h-185l-35 -56h-68l165 254h66zM280 308l-65 106l-63 -106h128z" />
    <glyph glyph-name="guillemotleft" unicode="&#xab;" horiz-adv-x="562" 
d="M500 64h-89l-118 148l118 147h89l-114 -147zM269 64h-89l-118 148l118 147h89l-114 -147z" />
    <glyph glyph-name="logicalnot" unicode="&#xac;" horiz-adv-x="833" 
d="M709 175h-67v177h-518v68h585v-245z" />
    <glyph glyph-name="sfthyphen" unicode="&#xad;" horiz-adv-x="330" 
d="M281 215h-233v103h233v-103z" />
    <glyph glyph-name="registered" unicode="&#xae;" horiz-adv-x="833" 
d="M777 355c0 -100.667 -35 -185 -105 -253c-73.333 -70.667 -158.666 -106 -255.999 -106c-98.667 0 -183.167 35.667 -253.5 107s-105.5 155.333 -105.5 252c0 98 36.333 184 109 258c67.333 68 150.666 102 249.999 102c101.333 0 186.833 -35.5 256.5 -106.5
s104.5 -155.5 104.5 -253.5zM729 352c0 88.667 -29.667 163 -89 223c-61.333 62 -135.666 93 -222.999 93c-86.667 0 -159.334 -29.667 -218.001 -89c-63.333 -64.667 -95 -139.334 -95 -224.001c0 -83.333 30.5 -156.166 91.5 -218.499s133.833 -93.5 218.5 -93.5
c86 0 160.667 30.667 224 92c60.667 58.667 91 131 91 217zM596 454c0 -60.667 -31 -97.333 -93 -110l91 -186h-86l-83 174h-76v-174h-77v408h154c113.333 0 170 -37.333 170 -112zM517 446.001c0 46.667 -35 70 -105 70h-63v-135h65c68.667 0 103 21.667 103 65z" />
    <glyph glyph-name="macron" unicode="&#xaf;" 
d="M385 521h-270v72h270v-72z" />
    <glyph glyph-name="macron" unicode="&#x2c9;" 
d="M385 521h-270v72h270v-72z" />
    <glyph glyph-name="degree" unicode="&#xb0;" horiz-adv-x="329" 
d="M305 570c0 -38.667 -13.6689 -71.665 -41.002 -98.998s-60.666 -41 -99.999 -41s-72.5 13.5 -99.5 40.5s-40.5 60.167 -40.5 99.5s13.833 72.666 41.5 99.999s60.834 41 99.501 41s71.667 -13.833 99 -41.5s41 -60.834 41 -99.501zM258.998 571.002
c0 26 -9 48.167 -27 66.5s-40.333 27.5 -67 27.5c-26 0 -48.333 -9.16699 -67 -27.5s-28 -40.5 -28 -66.5c0 -26.667 9.16699 -49.334 27.5 -68.001s40.833 -28 67.5 -28s49 9.33301 67 28s27 41.334 27 68.001z" />
    <glyph glyph-name="plusminus" unicode="&#xb1;" horiz-adv-x="833" 
d="M709 348h-258v-166h-69v166h-258v68h258v166h69v-166h258v-68zM709 14h-585v69h585v-69z" />
    <glyph glyph-name="twosuperior" unicode="&#xb2;" horiz-adv-x="510" 
d="M440 267c0 -24.667 -5.49805 -41 -16.498 -49s-31.5 -12 -61.5 -12h-287v28c0 22 14.333 41 43 57l236 132v40h-194v-64l-68 16v40c0 24 5.66699 40.167 17 48.5s31.666 12.5 60.999 12.5h175c29.333 0 49.666 -4.16699 60.999 -12.5s17 -24.5 17 -48.5v-20
c0 -16.667 -3 -29 -9 -37s-17.667 -16.667 -35 -26l-200 -110h198v45l63 -16v-24z" />
    <glyph glyph-name="threesuperior" unicode="&#xb3;" horiz-adv-x="510" 
d="M431 273c0 -24.667 -5.83105 -41.998 -17.498 -51.998s-33.5 -15 -65.5 -15h-198c-30 0 -50.333 4 -61 12s-16 24.333 -16 49v25l70 13v-43h183c12.667 0 21.334 1.66699 26.001 5s7 10.666 7 21.999v23c0 18.667 -11 28 -33 28h-115v51h103
c16.667 0 26.667 3.66699 30 11c1.33301 4 2 9.66699 2 17v16c0 10.667 -2 18 -6 22s-12.667 6 -26 6h-169v-39l-67 12v19c0 24 5.66699 40.167 17 48.5s31.666 12.5 60.999 12.5h184c29.333 0 49.666 -4.16699 60.999 -12.5s17 -24.5 17 -48.5v-28
c0 -18.667 -4.83301 -32.334 -14.5 -41.001s-26.834 -14.667 -51.501 -18c52.667 -4.66699 79 -25.667 79 -63v-32z" />
    <glyph glyph-name="acute" unicode="&#xb4;" horiz-adv-x="715" 
d="M487 628l-103 -150h-78l73 150h108z" />
    <glyph glyph-name="mu" unicode="&#xb5;" horiz-adv-x="562" 
d="M521 523l-76.001 -356.999c-7.33301 -34.667 -11 -56.334 -11 -65.001c0 -22 11.667 -33 35 -33c6.66699 0 12 0.333008 16 1l-15 -69c-16 -3.33301 -33.667 -5 -53 -5c-37.333 0 -61.666 20.667 -72.999 62c-28.667 -42 -72.667 -63 -132 -63
c-51.333 0 -93 18.667 -125 56l-54 -258h-87l154 731h88l-63 -293c-4.66699 -22 -7 -43.667 -7 -65c0 -67.333 32.667 -101 98 -101c44 0 78.667 16 104 48c24 30 43.333 79.667 58 149l56 262h87z" />
    <glyph glyph-name="mu" unicode="&#x3bc;" horiz-adv-x="562" 
d="M521 523l-76.001 -356.999c-7.33301 -34.667 -11 -56.334 -11 -65.001c0 -22 11.667 -33 35 -33c6.66699 0 12 0.333008 16 1l-15 -69c-16 -3.33301 -33.667 -5 -53 -5c-37.333 0 -61.666 20.667 -72.999 62c-28.667 -42 -72.667 -63 -132 -63
c-51.333 0 -93 18.667 -125 56l-54 -258h-87l154 731h88l-63 -293c-4.66699 -22 -7 -43.667 -7 -65c0 -67.333 32.667 -101 98 -101c44 0 78.667 16 104 48c24 30 43.333 79.667 58 149l56 262h87z" />
    <glyph glyph-name="paragraph" unicode="&#xb6;" 
d="M468 680h-59.001v-680h-54v680h-87v-680h-54v382c-56 2.66699 -100.333 19.5 -133 50.5s-49 70.833 -49 119.5c0 50.667 17.333 91.667 52 123s81.334 47 140.001 47h244v-42z" />
    <glyph glyph-name="periodcentered" unicode="&#xb7;" horiz-adv-x="331" 
d="M247 258c0 -22 -8.16797 -41.165 -24.501 -57.498s-35.5 -24.5 -57.5 -24.5s-41 8.16699 -57 24.5s-24 35.5 -24 57.5c0 23.333 7.83301 42.666 23.5 57.999s34.834 23 57.501 23c23.333 0 42.833 -7.83301 58.5 -23.5s23.5 -34.834 23.5 -57.501z" />
    <glyph glyph-name="periodcentered" unicode="&#x2219;" horiz-adv-x="331" 
d="M247 258c0 -22 -8.16797 -41.165 -24.501 -57.498s-35.5 -24.5 -57.5 -24.5s-41 8.16699 -57 24.5s-24 35.5 -24 57.5c0 23.333 7.83301 42.666 23.5 57.999s34.834 23 57.501 23c23.333 0 42.833 -7.83301 58.5 -23.5s23.5 -34.834 23.5 -57.501z" />
    <glyph glyph-name="cedilla" unicode="&#xb8;" horiz-adv-x="644" 
d="M470 -139c0 -62 -40.667 -93 -122 -93c-36.667 0 -81 7 -133 21v58c54 -14 95.667 -21 125 -21c35.333 0 53 12.333 53 37c0 26 -23.333 39 -70 39c-2 0 -5.33301 -0.333008 -10 -1h-10v99h44v-45h8c76.667 0 115 -31.333 115 -94z" />
    <glyph glyph-name="onesuperior" unicode="&#xb9;" horiz-adv-x="510" 
d="M305 206h-72v251h-72v41l144 20v-312z" />
    <glyph glyph-name="ordmasculine" unicode="&#xba;" horiz-adv-x="472" 
d="M416 266c0 -24 -5 -39.998 -15 -47.998s-29 -12 -57 -12h-216c-28 0 -47.167 4.16699 -57.5 12.5s-15.5 24.166 -15.5 47.499v134c0 23.333 5.16699 39.166 15.5 47.499s29.5 12.5 57.5 12.5h216c28 0 47 -4 57 -12s15 -24 15 -48v-134zM348 255.002v158h-225v-158h225z
" />
    <glyph glyph-name="guillemotright" unicode="&#xbb;" horiz-adv-x="562" 
d="M500 212l-118 -148h-88l113 148l-113 147h88zM269 212l-118 -148h-89l114 148l-114 147h89z" />
    <glyph glyph-name="onequarter" unicode="&#xbc;" horiz-adv-x="1141" 
d="M1099 64h-79v-66h-69v66h-246v48l244 180h71v-180h79v-48zM820 532l-435 -547h-65l436 547h64zM292 227h-69v234h-69v39l138 18v-291zM951 112v129l-177 -129h177z" />
    <glyph glyph-name="onehalf" unicode="&#xbd;" horiz-adv-x="1141" 
d="M1074 57c0 -22.667 -5.33301 -37.833 -16 -45.5s-30.334 -11.5 -59.001 -11.5h-273v26c0 11.333 2.33301 20.5 7 27.5s16 15.5 34 25.5l225 123v38h-186v-60l-64 15v37c0 22.667 5.33301 37.834 16 45.501s30.334 11.5 59.001 11.5h166
c28.667 0 48.334 -3.83301 59.001 -11.5s16 -22.834 16 -45.501v-18c0 -16 -2.83301 -27.667 -8.5 -35s-16.834 -15.333 -33.501 -24l-191 -103h189v43l60 -15v-23zM820 532.001l-435 -547h-65l436 547h64zM292 227.001h-69v234h-69v39l138 18v-291z" />
    <glyph glyph-name="threequarters" unicode="&#xbe;" horiz-adv-x="1141" 
d="M1099 64h-79v-66h-69v66h-246v48l244 180h71v-180h79v-48zM820 532l-435 -547h-65l436 547h64zM411 289c0 -23.333 -5.50098 -39.502 -16.501 -48.502s-31.5 -13.5 -61.5 -13.5h-189c-28.667 0 -48.334 3.83301 -59.001 11.5s-16 22.834 -16 45.501v23l67 12v-40h175
c12.667 0 21.167 1.83301 25.5 5.5s6.5 10.5 6.5 20.5v21c0 17.333 -10.667 26 -32 26h-109v47h97c20.667 0 31 9 31 27v14c0 10.667 -2.16699 17.834 -6.5 21.501s-12.5 5.5 -24.5 5.5h-160v-36l-65 10v18c0 22.667 5.33301 37.834 16 45.501s30.334 11.5 59.001 11.5h175
c28.667 0 48.334 -3.83301 59.001 -11.5s16 -22.834 16 -45.501v-26c0 -30 -21 -48.333 -63 -55c50 -4 75 -23.667 75 -59v-30zM950.999 111.998v129l-177 -129h177z" />
    <glyph glyph-name="questiondown" unicode="&#xbf;" horiz-adv-x="662" 
d="M411 408c0 -16.667 -3.33301 -27 -10 -31c-4 -2 -14.667 -3 -32 -3h-88c-16.667 0 -25 11.333 -25 34v74c0 16.667 3.33301 27 10 31c4 2 14.667 3 32 3h88c16.667 0 25 -11.333 25 -34v-74zM541 106c0 -70.667 -36 -106 -108 -106h-204c-82 -0 -123 32.333 -123 97v81
l175 102v27h102v-72l-173 -104v-45h231v64l100 -16v-28z" />
    <glyph glyph-name="Agrave" unicode="&#xc0;" horiz-adv-x="771" 
d="M429 571h-78l-103 150h108zM737 0h-135l-62 113h-327l-60 -113h-120l292 516h116zM490 206l-111 210l-115 -210h226z" />
    <glyph glyph-name="Aacute" unicode="&#xc1;" horiz-adv-x="771" 
d="M523 721l-103 -150h-78l73 150h108zM737 0h-135l-62 113h-327l-60 -113h-120l292 516h116zM490 206l-111 210l-115 -210h226z" />
    <glyph glyph-name="Acircumflex" unicode="&#xc2;" horiz-adv-x="771" 
d="M531 570h-64l-81 103l-82 -103h-63l92 170h106zM737 0h-135l-62 113h-327l-60 -113h-120l292 516h116zM490 206l-111 210l-115 -210h226z" />
    <glyph glyph-name="Atilde" unicode="&#xc3;" horiz-adv-x="771" 
d="M533 709c-15.333 -73.333 -47.6689 -110 -97.002 -110c-11.333 0 -22.666 1.66699 -33.999 5l-41 12c-11.333 3.33301 -21.666 5 -30.999 5c-21.333 0 -35.333 -11 -42 -33h-49c12.667 71.333 44 107 94 107c10.667 0 24.334 -2.33301 41.001 -7l43 -12
c7.33301 -2 15.666 -3 24.999 -3c22 0 36 12 42 36h49zM736.997 0h-135l-62 113h-327l-60 -113h-120l292 516h116zM489.997 206l-111 210l-115 -210h226z" />
    <glyph glyph-name="Adieresis" unicode="&#xc4;" horiz-adv-x="771" 
d="M519 594h-100v112h100v-112zM353 594h-100v112h100v-112zM737 0h-135l-62 113h-327l-60 -113h-120l292 516h116zM490 206l-111 210l-115 -210h226z" />
    <glyph glyph-name="Aring" unicode="&#xc5;" horiz-adv-x="771" 
d="M509 675c0 -35.333 -12.333 -65.166 -37 -89.499s-54.667 -36.5 -90 -36.5s-65 12.167 -89 36.5s-36 54.166 -36 89.499s12.167 65 36.5 89s53.833 36 88.5 36c35.333 0 65.333 -12.167 90 -36.5s37 -53.833 37 -88.5zM737 0h-135l-62 113h-327l-60 -113h-120l292 516
h116zM445 674c0 17.333 -6 32.166 -18 44.499s-26.667 18.5 -44 18.5s-32 -6.16699 -44 -18.5s-18 -27.166 -18 -44.499s6 -32 18 -44s26.667 -18 44 -18s32 6 44 18s18 26.667 18 44zM490 206l-111 210l-115 -210h226z" />
    <glyph glyph-name="AE" unicode="&#xc6;" horiz-adv-x="1069" 
d="M980 0h-456v128h-265l-105 -128h-137l431 516h527v-88h-334v-115h239v-88h-239v-128h339v-97zM524 222v216h-18l-178 -216h196z" />
    <glyph glyph-name="Ccedilla" unicode="&#xc7;" horiz-adv-x="801" 
d="M546 -139c0 -62 -40.667 -93 -122 -93c-36.667 0 -81 7 -133 21v58c54 -14 95.667 -21 125 -21c35.333 0 53 12.333 53 37c0 26 -23.333 39 -70 39c-2 0 -5.33301 -0.333008 -10 -1h-10v99h-130c-49.333 -0 -83 8.33301 -101 25s-27 49 -27 97v272c0 48 9 80.333 27 97
s51.667 25 101 25h308c49.333 0 83 -8.33301 101 -25s27 -49 27 -97v-49l-120 -19v98h-324v-327h324v111l120 -25v-61c0 -48 -9 -80.333 -27 -97s-51.667 -25 -101 -25h-134v-45h8c76.667 0 115 -31.333 115 -94z" />
    <glyph glyph-name="Egrave" unicode="&#xc8;" horiz-adv-x="755" 
d="M468 571h-78l-103 150h108zM665 0h-533v516h528v-88h-408v-115h238v-88h-238v-128h413v-97z" />
    <glyph glyph-name="Eacute" unicode="&#xc9;" horiz-adv-x="755" 
d="M526 721l-103 -150h-78l73 150h108zM665 0h-533v516h528v-88h-408v-115h238v-88h-238v-128h413v-97z" />
    <glyph glyph-name="Ecircumflex" unicode="&#xca;" horiz-adv-x="755" 
d="M544 570h-64l-81 103l-82 -103h-63l92 170h106zM665 0h-533v516h528v-88h-408v-115h238v-88h-238v-128h413v-97z" />
    <glyph glyph-name="Edieresis" unicode="&#xcb;" horiz-adv-x="755" 
d="M532 594h-100v112h100v-112zM366 594h-100v112h100v-112zM665 0h-533v516h528v-88h-408v-115h238v-88h-238v-128h413v-97z" />
    <glyph glyph-name="Igrave" unicode="&#xcc;" horiz-adv-x="384" 
d="M244 571h-78l-103 150h108zM252 0h-120v516h120v-516z" />
    <glyph glyph-name="Iacute" unicode="&#xcd;" horiz-adv-x="384" 
d="M328 721l-103 -150h-78l73 150h108zM252 0h-120v516h120v-516z" />
    <glyph glyph-name="Icircumflex" unicode="&#xce;" horiz-adv-x="384" 
d="M337 570h-64l-81 103l-82 -103h-63l92 170h106zM252 0h-120v516h120v-516z" />
    <glyph glyph-name="Idieresis" unicode="&#xcf;" horiz-adv-x="384" 
d="M325 594h-100v112h100v-112zM159 594h-100v112h100v-112zM252 0h-120v516h120v-516z" />
    <glyph glyph-name="Eth" unicode="&#xd0;" horiz-adv-x="847" 
d="M759 261c0 -51.333 -11.668 -97.999 -35.001 -139.999c-25.333 -44 -60.666 -75.667 -105.999 -95c-41.333 -17.333 -103 -26 -185 -26h-301v223h-96v95h96v198h332c95.333 0 168.333 -22.333 219 -67s76 -107.334 76 -188.001zM634.999 263.001
c0 107.333 -56.667 161 -170 161h-213v-106h192v-95h-192v-126h155c79.333 0 136.333 11.667 171 35c38 25.333 57 69 57 131z" />
    <glyph glyph-name="Ntilde" unicode="&#xd1;" horiz-adv-x="869" 
d="M582 709c-15.333 -73.333 -47.6689 -110 -97.002 -110c-11.333 0 -22.666 1.66699 -33.999 5l-41 12c-11.333 3.33301 -21.666 5 -30.999 5c-21.333 0 -35.333 -11 -42 -33h-49c12.667 71.333 44 107 94 107c10.667 0 24.334 -2.33301 41.001 -7l43 -12
c7.33301 -2 15.666 -3 24.999 -3c22 0 36 12 42 36h49zM737.997 0l-82 -0.000976562l-379 319c-16 13.333 -30.333 27.333 -43 42c3.33301 -33.333 5 -60.666 5 -81.999v-279h-108v516h82l363 -304c26 -22 45.667 -40.667 59 -56c-3.33301 48 -5 77.667 -5 89v271h108v-516z
" />
    <glyph glyph-name="Ograve" unicode="&#xd2;" horiz-adv-x="878" 
d="M504 571h-78l-103 150h108zM757 122c0 -48 -9 -80.333 -27 -97s-51.667 -25 -101 -25h-380c-49.333 -0 -83 8.33301 -101 25s-27 49 -27 97v272c0 48 9 80.333 27 97s51.667 25 101 25h380c49.333 0 83 -8.33301 101 -25s27 -49 27 -97v-272zM637 97v327h-396v-327h396z
" />
    <glyph glyph-name="Oacute" unicode="&#xd3;" horiz-adv-x="878" 
d="M565 721l-103 -150h-78l73 150h108zM757 122c0 -48 -9 -80.333 -27 -97s-51.667 -25 -101 -25h-380c-49.333 -0 -83 8.33301 -101 25s-27 49 -27 97v272c0 48 9 80.333 27 97s51.667 25 101 25h380c49.333 0 83 -8.33301 101 -25s27 -49 27 -97v-272zM637 97v327h-396
v-327h396z" />
    <glyph glyph-name="Ocircumflex" unicode="&#xd4;" horiz-adv-x="878" 
d="M584 570h-64l-81 103l-82 -103h-63l92 170h106zM757 122c0 -48 -9 -80.333 -27 -97s-51.667 -25 -101 -25h-380c-49.333 -0 -83 8.33301 -101 25s-27 49 -27 97v272c0 48 9 80.333 27 97s51.667 25 101 25h380c49.333 0 83 -8.33301 101 -25s27 -49 27 -97v-272zM637 97
v327h-396v-327h396z" />
    <glyph glyph-name="Otilde" unicode="&#xd5;" horiz-adv-x="878" 
d="M586 709c-15.333 -73.333 -47.6689 -110 -97.002 -110c-11.333 0 -22.666 1.66699 -33.999 5l-41 12c-11.333 3.33301 -21.666 5 -30.999 5c-21.333 0 -35.333 -11 -42 -33h-49c12.667 71.333 44 107 94 107c10.667 0 24.334 -2.33301 41.001 -7l43 -12
c7.33301 -2 15.666 -3 24.999 -3c22 0 36 12 42 36h49zM756.997 122c0 -48 -9 -80.333 -27 -97s-51.667 -25 -101 -25h-380c-49.333 -0 -83 8.33301 -101 25s-27 49 -27 97v272c0 48 9 80.333 27 97s51.667 25 101 25h380c49.333 0 83 -8.33301 101 -25s27 -49 27 -97v-272z
M636.997 97v327h-396v-327h396z" />
    <glyph glyph-name="Odieresis" unicode="&#xd6;" horiz-adv-x="878" 
d="M572 594h-100v112h100v-112zM406 594h-100v112h100v-112zM757 122c0 -48 -9 -80.333 -27 -97s-51.667 -25 -101 -25h-380c-49.333 -0 -83 8.33301 -101 25s-27 49 -27 97v272c0 48 9 80.333 27 97s51.667 25 101 25h380c49.333 0 83 -8.33301 101 -25s27 -49 27 -97v-272
zM637 97v327h-396v-327h396z" />
    <glyph glyph-name="multiply" unicode="&#xd7;" horiz-adv-x="833" 
d="M697 69l-48 -47l-229 228l-229 -228l-48 47l229 229l-229 229l48 48l229 -229l229 229l48 -48l-229 -229z" />
    <glyph glyph-name="Oslash" unicode="&#xd8;" horiz-adv-x="878" 
d="M759 644l-91 -128.998c33.333 -2.66699 56.5 -13.334 69.5 -32.001s19.5 -48.334 19.5 -89.001v-272c0 -48 -9 -80.333 -27 -97s-51.667 -25 -101 -25h-321l-90 -127h-99l90 129c-32.667 2.66699 -55.5 13.167 -68.5 31.5s-19.5 47.833 -19.5 88.5v272
c0 48 9 80.333 27 97s51.667 25 101 25h319l92 128h99zM637 97.002v327h-47l-228 -327h275zM516 424.002h-275v-327h48z" />
    <glyph glyph-name="Ugrave" unicode="&#xd9;" horiz-adv-x="846" 
d="M488 571h-78l-103 150h108zM714 122c0 -48 -9 -80.333 -27 -97s-51.667 -25 -101 -25h-326c-49.333 -0 -83 8.33301 -101 25s-27 49 -27 97v394h120v-419h342v419h120v-394z" />
    <glyph glyph-name="Uacute" unicode="&#xda;" horiz-adv-x="846" 
d="M536 721l-103 -150h-78l73 150h108zM714 122c0 -48 -9 -80.333 -27 -97s-51.667 -25 -101 -25h-326c-49.333 -0 -83 8.33301 -101 25s-27 49 -27 97v394h120v-419h342v419h120v-394z" />
    <glyph glyph-name="Ucircumflex" unicode="&#xdb;" horiz-adv-x="846" 
d="M568 570h-64l-81 103l-82 -103h-63l92 170h106zM714 122c0 -48 -9 -80.333 -27 -97s-51.667 -25 -101 -25h-326c-49.333 -0 -83 8.33301 -101 25s-27 49 -27 97v394h120v-419h342v419h120v-394z" />
    <glyph glyph-name="Udieresis" unicode="&#xdc;" horiz-adv-x="846" 
d="M556 594h-100v112h100v-112zM390 594h-100v112h100v-112zM714 122c0 -48 -9 -80.333 -27 -97s-51.667 -25 -101 -25h-326c-49.333 -0 -83 8.33301 -101 25s-27 49 -27 97v394h120v-419h342v419h120v-394z" />
    <glyph glyph-name="Yacute" unicode="&#xdd;" horiz-adv-x="672" 
d="M472 740l-144 -169h-64l100 169h108zM664 516l-267 -282v-234h-121v231l-268 285h160l177 -198l178 198h141z" />
    <glyph glyph-name="Thorn" unicode="&#xde;" horiz-adv-x="743" 
d="M690 210c0 -66.667 -38.667 -100 -116 -100h-324v-110h-118v516h118v-91h324c77.333 0 116 -33.333 116 -100v-115zM574 240v55c0 17.333 -5 29 -15 35c-7.33301 4 -20.333 6 -39 6h-270v-137h270c18.667 0 31.667 2 39 6c10 6 15 17.667 15 35z" />
    <glyph glyph-name="germandbls" unicode="&#xdf;" horiz-adv-x="1326" 
d="M1242 100c0 -39.333 -7.66699 -65.833 -23 -79.5s-44.333 -20.5 -87 -20.5h-275c-42.667 -0 -71.834 6.83301 -87.501 20.5s-23.5 40.167 -23.5 79.5v12l92 17v-50h311v97h-274c-42 0 -71 6.83301 -87 20.5s-24 40.167 -24 79.5v47c0 39.333 8 65.833 24 79.5
s45 20.5 87 20.5h251c40.667 0 69.334 -6.33301 86.001 -19s25 -37 25 -73v-10l-89 -19v45h-291v-89h275c42.667 0 71.667 -6.83301 87 -20.5s23 -40.167 23 -79.5v-58zM579 100c0 -39.333 -7.66699 -65.833 -23 -79.5s-44.333 -20.5 -87 -20.5h-275
c-42.667 -0 -71.834 6.83301 -87.501 20.5s-23.5 40.167 -23.5 79.5v12l92 17v-50h311v97h-274c-42 0 -71 6.83301 -87 20.5s-24 40.167 -24 79.5v47c0 39.333 8 65.833 24 79.5s45 20.5 87 20.5h251c40.667 0 69.334 -6.33301 86.001 -19s25 -37 25 -73v-10l-89 -19v45
h-291v-89h275c42.667 0 71.667 -6.83301 87 -20.5s23 -40.167 23 -79.5v-58z" />
    <glyph glyph-name="agrave" unicode="&#xe0;" horiz-adv-x="646" 
d="M370 478h-78l-103 150h108zM635 0h-116l-53 93h-280l-53 -93h-103l251 423h99zM424 170l-99 176l-95 -176h194z" />
    <glyph glyph-name="aacute" unicode="&#xe1;" horiz-adv-x="646" 
d="M476 628l-103 -150h-78l73 150h108zM635 0h-116l-53 93h-280l-53 -93h-103l251 423h99zM424 170l-99 176l-95 -176h194z" />
    <glyph glyph-name="acircumflex" unicode="&#xe2;" horiz-adv-x="646" 
d="M468 477h-64l-81 103l-82 -103h-63l92 170h106zM635 0h-116l-53 93h-280l-53 -93h-103l251 423h99zM424 170l-99 176l-95 -176h194z" />
    <glyph glyph-name="atilde" unicode="&#xe3;" horiz-adv-x="646" 
d="M470 616c-15.333 -73.333 -47.6689 -110 -97.002 -110c-11.333 0 -22.666 1.66699 -33.999 5l-41 12c-11.333 3.33301 -21.666 5 -30.999 5c-21.333 0 -35.333 -11 -42 -33h-49c12.667 71.333 44 107 94 107c10.667 0 24.334 -2.33301 41.001 -7l43 -12
c7.33301 -2 15.666 -3 24.999 -3c22 0 36 12 42 36h49zM634.997 0h-116l-53 93h-280l-53 -93h-103l251 423h99zM423.997 170l-99 176l-95 -176h194z" />
    <glyph glyph-name="adieresis" unicode="&#xe4;" horiz-adv-x="646" 
d="M456 501h-100v112h100v-112zM290 501h-100v112h100v-112zM635 0h-116l-53 93h-280l-53 -93h-103l251 423h99zM424 170l-99 176l-95 -176h194z" />
    <glyph glyph-name="aring" unicode="&#xe5;" horiz-adv-x="646" 
d="M449 594c0 -35.333 -12.167 -65.166 -36.5 -89.499s-54.166 -36.5 -89.499 -36.5s-65 12.167 -89 36.5s-36 54.166 -36 89.499s12.167 65.166 36.5 89.499s53.833 36.5 88.5 36.5c35.333 0 65.166 -12.167 89.499 -36.5s36.5 -54.166 36.5 -89.499zM635 0h-116l-53 93
h-280l-53 -93h-103l251 423h99zM386 594c0 17.333 -6 32 -18 44s-26.667 18 -44 18s-32.166 -6 -44.499 -18s-18.5 -26.667 -18.5 -44s6.16699 -32.166 18.5 -44.499s27.166 -18.5 44.499 -18.5s32 6.16699 44 18.5s18 27.166 18 44.499zM424 170l-99 176l-95 -176h194z" />
    <glyph glyph-name="ae" unicode="&#xe6;" horiz-adv-x="898" 
d="M843 0h-389v105h-231l-91 -105h-117l371 423h453v-75h-287v-92h205v-73h-205v-103h291v-80zM454 182v177h-19l-154 -177h173z" />
    <glyph glyph-name="ccedilla" unicode="&#xe7;" horiz-adv-x="644" 
d="M470 -139c0 -62 -40.667 -93 -122 -93c-36.667 0 -81 7 -133 21v58c54 -14 95.667 -21 125 -21c35.333 0 53 12.333 53 37c0 26 -23.333 39 -70 39c-2 0 -5.33301 -0.333008 -10 -1h-10v99h-109c-42.667 0 -71.667 7 -87 21s-23 40.333 -23 79v223
c0 39.333 7.66699 65.833 23 79.5s44.333 20.5 87 20.5h264c42.667 0 71.834 -6.83301 87.501 -20.5s23.5 -40.167 23.5 -79.5v-41l-104 -15v78h-278v-264h278v90l104 -21v-50c0 -39.333 -7.83301 -65.833 -23.5 -79.5s-44.834 -20.5 -87.501 -20.5h-111v-45h8
c76.667 0 115 -31.333 115 -94z" />
    <glyph glyph-name="egrave" unicode="&#xe8;" horiz-adv-x="608" 
d="M386 478h-78l-103 150h108zM553 0h-459v423h454v-75h-350v-92h204v-73h-204v-104h355v-79z" />
    <glyph glyph-name="eacute" unicode="&#xe9;" horiz-adv-x="608" 
d="M448 628l-103 -150h-78l73 150h108zM553 0h-459v423h454v-75h-350v-92h204v-73h-204v-104h355v-79z" />
    <glyph glyph-name="ecircumflex" unicode="&#xea;" horiz-adv-x="608" 
d="M465 477h-64l-81 103l-82 -103h-63l92 170h106zM553 0h-459v423h454v-75h-350v-92h204v-73h-204v-104h355v-79z" />
    <glyph glyph-name="edieresis" unicode="&#xeb;" horiz-adv-x="608" 
d="M453 501h-100v112h100v-112zM287 501h-100v112h100v-112zM553 0h-459v423h454v-75h-350v-92h204v-73h-204v-104h355v-79z" />
    <glyph glyph-name="igrave" unicode="&#xec;" horiz-adv-x="291" 
d="M190 478h-78l-103 150h108zM197 0h-103v423h103v-423z" />
    <glyph glyph-name="iacute" unicode="&#xed;" horiz-adv-x="291" 
d="M283 628l-103 -150h-78l73 150h108zM197 0h-103v423h103v-423z" />
    <glyph glyph-name="icircumflex" unicode="&#xee;" horiz-adv-x="291" 
d="M291 477h-64l-81 103l-82 -103h-63l92 170h106zM197 0h-103v423h103v-423z" />
    <glyph glyph-name="idieresis" unicode="&#xef;" horiz-adv-x="291" 
d="M279 501h-100v112h100v-112zM113 501h-100v112h100v-112zM197 0h-103v423h103v-423z" />
    <glyph glyph-name="eth" unicode="&#xf0;" horiz-adv-x="694" 
d="M633 213c0 -142 -93.333 -213 -280 -213h-259v178h-82v78h82v167h285c75.333 0 135 -15.667 179 -47c50 -36 75 -90.333 75 -163zM527 218c0 86 -49 128.999 -147 128.999h-182v-91h166v-78h-166v-99h133c63.333 0 109 7.66699 137 23
c39.333 20.667 59 59.334 59 116.001z" />
    <glyph glyph-name="ntilde" unicode="&#xf1;" horiz-adv-x="712" 
d="M503 616c-15.333 -73.333 -47.6689 -110 -97.002 -110c-11.333 0 -22.666 1.66699 -33.999 5l-41 12c-11.333 3.33301 -21.666 5 -30.999 5c-21.333 0 -35.333 -11 -42 -33h-49c12.667 71.333 44 107 94 107c10.667 0 24.334 -2.33301 41.001 -7l43 -12
c7.33301 -2 15.666 -3 24.999 -3c22 0 36 12 42 36h49zM616.997 0h-71l-358 285v-285h-94v423h71l359 -281v281h93v-423z" />
    <glyph glyph-name="ograve" unicode="&#xf2;" horiz-adv-x="715" 
d="M423 478h-78l-103 150h108zM631 100c0 -39.333 -7.83301 -65.833 -23.5 -79.5s-44.5 -20.5 -86.5 -20.5h-327c-42.667 -0 -71.667 6.83301 -87 20.5s-23 40.167 -23 79.5v223c0 40 7.66699 66.667 23 80s44.333 20 87 20h327c42.667 0 71.667 -6.66699 87 -20
s23 -40 23 -80v-223zM528 81v264h-341v-264h341z" />
    <glyph glyph-name="oacute" unicode="&#xf3;" horiz-adv-x="715" 
d="M468 628l-103 -150h-78l73 150h108zM631 100c0 -39.333 -7.83301 -65.833 -23.5 -79.5s-44.5 -20.5 -86.5 -20.5h-327c-42.667 -0 -71.667 6.83301 -87 20.5s-23 40.167 -23 79.5v223c0 40 7.66699 66.667 23 80s44.333 20 87 20h327c42.667 0 71.667 -6.66699 87 -20
s23 -40 23 -80v-223zM528 81v264h-341v-264h341z" />
    <glyph glyph-name="ocircumflex" unicode="&#xf4;" horiz-adv-x="715" 
d="M503 477h-64l-81 103l-82 -103h-63l92 170h106zM631 100c0 -39.333 -7.83301 -65.833 -23.5 -79.5s-44.5 -20.5 -86.5 -20.5h-327c-42.667 -0 -71.667 6.83301 -87 20.5s-23 40.167 -23 79.5v223c0 40 7.66699 66.667 23 80s44.333 20 87 20h327
c42.667 0 71.667 -6.66699 87 -20s23 -40 23 -80v-223zM528 81v264h-341v-264h341z" />
    <glyph glyph-name="otilde" unicode="&#xf5;" horiz-adv-x="715" 
d="M505 616c-15.333 -73.333 -47.6689 -110 -97.002 -110c-11.333 0 -22.666 1.66699 -33.999 5l-41 12c-11.333 3.33301 -21.666 5 -30.999 5c-21.333 0 -35.333 -11 -42 -33h-49c12.667 71.333 44 107 94 107c10.667 0 24.334 -2.33301 41.001 -7l43 -12
c7.33301 -2 15.666 -3 24.999 -3c22 0 36 12 42 36h49zM630.997 100c0 -39.333 -7.83301 -65.833 -23.5 -79.5s-44.5 -20.5 -86.5 -20.5h-327c-42.667 -0 -71.667 6.83301 -87 20.5s-23 40.167 -23 79.5v223c0 40 7.66699 66.667 23 80s44.333 20 87 20h327
c42.667 0 71.667 -6.66699 87 -20s23 -40 23 -80v-223zM527.997 81v264h-341v-264h341z" />
    <glyph glyph-name="odieresis" unicode="&#xf6;" horiz-adv-x="715" 
d="M491 501h-100v112h100v-112zM325 501h-100v112h100v-112zM631 100c0 -39.333 -7.83301 -65.833 -23.5 -79.5s-44.5 -20.5 -86.5 -20.5h-327c-42.667 -0 -71.667 6.83301 -87 20.5s-23 40.167 -23 79.5v223c0 40 7.66699 66.667 23 80s44.333 20 87 20h327
c42.667 0 71.667 -6.66699 87 -20s23 -40 23 -80v-223zM528 81v264h-341v-264h341z" />
    <glyph glyph-name="divide" unicode="&#xf7;" horiz-adv-x="833" 
d="M478 478c0 -16.667 -6 -31 -18 -43s-26.333 -18 -43 -18s-31 6 -43 18s-18 26.333 -18 43s6 31.167 18 43.5s26.333 18.5 43 18.5s31 -6.16699 43 -18.5s18 -26.833 18 -43.5zM709 264h-585v68h585v-68zM478 118c0 -16.667 -6 -31 -18 -43s-26.333 -18 -43 -18
c-17.333 0 -31.833 5.83301 -43.5 17.5s-17.5 26.167 -17.5 43.5c0 16.667 6 31 18 43s26.333 18 43 18s31 -6 43 -18s18 -26.333 18 -43z" />
    <glyph glyph-name="oslash" unicode="&#xf8;" horiz-adv-x="715" 
d="M634 528l-78 -106c28.667 -2.66699 48.667 -11.5 60 -26.5s17 -39.167 17 -72.5v-223c0 -38.667 -7.66699 -65 -23 -79s-44.333 -21 -87 -21h-276l-77 -104h-86l78 106c-28 2 -47.667 10.5 -59 25.5s-17 39.167 -17 72.5v223c0 39.333 7.83301 65.833 23.5 79.5
s44.5 20.5 86.5 20.5h274l79 105h85zM529 81v264h-44l-191 -264h235zM423 345h-236v-264h45z" />
    <glyph glyph-name="ugrave" unicode="&#xf9;" horiz-adv-x="689" 
d="M395 478h-78l-103 150h108zM595 100c0 -39.333 -7.83203 -65.833 -23.499 -79.5s-44.834 -20.5 -87.501 -20.5h-280c-42.667 -0 -71.667 6.83301 -87 20.5s-23 40.167 -23 79.5v323h103v-344h294v344h104v-323z" />
    <glyph glyph-name="uacute" unicode="&#xfa;" horiz-adv-x="689" 
d="M458 628l-103 -150h-78l73 150h108zM595 100c0 -39.333 -7.83203 -65.833 -23.499 -79.5s-44.834 -20.5 -87.501 -20.5h-280c-42.667 -0 -71.667 6.83301 -87 20.5s-23 40.167 -23 79.5v323h103v-344h294v344h104v-323z" />
    <glyph glyph-name="ucircumflex" unicode="&#xfb;" horiz-adv-x="689" 
d="M490 477h-64l-81 103l-82 -103h-63l92 170h106zM595 100c0 -39.333 -7.83203 -65.833 -23.499 -79.5s-44.834 -20.5 -87.501 -20.5h-280c-42.667 -0 -71.667 6.83301 -87 20.5s-23 40.167 -23 79.5v323h103v-344h294v344h104v-323z" />
    <glyph glyph-name="udieresis" unicode="&#xfc;" horiz-adv-x="689" 
d="M478 501h-100v112h100v-112zM312 501h-100v112h100v-112zM595 100c0 -39.333 -7.83203 -65.833 -23.499 -79.5s-44.834 -20.5 -87.501 -20.5h-280c-42.667 -0 -71.667 6.83301 -87 20.5s-23 40.167 -23 79.5v323h103v-344h294v344h104v-323z" />
    <glyph glyph-name="yacute" unicode="&#xfd;" horiz-adv-x="593" 
d="M433 647l-144 -169h-64l100 169h108zM587 423l-230 -231v-192h-103v190l-231 233h139l151 -158l153 158h121z" />
    <glyph glyph-name="thorn" unicode="&#xfe;" horiz-adv-x="628" 
d="M574 173c0 -54 -33 -81 -99 -81h-279v-92h-102v423h102v-73h279c66 0 99 -27.333 99 -82v-95zM478 198v45c0 22.667 -15.667 34 -47 34h-235v-112h235c16 0 27.833 2 35.5 6s11.5 13 11.5 27z" />
    <glyph glyph-name="ydieresis" unicode="&#xff;" horiz-adv-x="593" 
d="M430 501h-100v112h100v-112zM264 501h-100v112h100v-112zM587 423l-230 -231v-192h-103v190l-231 233h139l151 -158l153 158h121z" />
    <glyph glyph-name="Amacron" unicode="&#x100;" horiz-adv-x="771" 
d="M514 597h-270v72h270v-72zM737 0h-135l-62 113h-327l-60 -113h-120l292 516h116zM490 206l-111 210l-115 -210h226z" />
    <glyph glyph-name="amacron" unicode="&#x101;" horiz-adv-x="646" 
d="M465 521h-270v72h270v-72zM635 0h-116l-53 93h-280l-53 -93h-103l251 423h99zM424 170l-99 176l-95 -176h194z" />
    <glyph glyph-name="Abreve" unicode="&#x102;" horiz-adv-x="771" 
d="M524 718c-6 -95.333 -54.001 -143 -144.001 -143s-138.667 47.667 -146 143h59c3.33301 -47.333 32.333 -71 87 -71s83.334 23.667 86.001 71h58zM736.999 0h-135l-62 113h-327l-60 -113h-120l292 516h116zM489.999 206l-111 210l-115 -210h226z" />
    <glyph glyph-name="abreve" unicode="&#x103;" horiz-adv-x="646" 
d="M474 628c-6 -95.333 -54 -143 -144 -143c-90.667 0 -139.334 47.667 -146.001 143h59c3.33301 -47.333 32.333 -71 87 -71s83.334 23.667 86.001 71h58zM635 0h-116l-53 93h-280l-53 -93h-103l251 423h99zM424 170l-99 176l-95 -176h194z" />
    <glyph glyph-name="Aogonek" unicode="&#x104;" horiz-adv-x="771" 
d="M752 -27c0 -62 -26.333 -93 -79 -93c-59.333 0 -89 27.333 -89 82c0 15.333 5 30 15 44l-59 107h-327l-60 -113h-120l292 516h116l296 -516h-57l-23 -27v-24h27v24h68zM490 206l-111 210l-115 -210h226z" />
    <glyph glyph-name="aogonek" unicode="&#x105;" horiz-adv-x="646" 
d="M657 -27c0 -62 -26.333 -93 -79 -93c-59.333 0 -89 27.333 -89 82c0 20.667 7.33301 38 22 52l-45 79h-280l-53 -93h-103l251 423h99l255 -423h-50l-23 -27v-24h27v24h68zM424 170l-99 176l-95 -176h194z" />
    <glyph glyph-name="Cacute" unicode="&#x106;" horiz-adv-x="801" 
d="M518 721l-103 -150h-78l73 150h108zM685 122c0 -48 -9 -80.333 -27 -97s-51.667 -25 -101 -25h-308c-49.333 -0 -83 8.33301 -101 25s-27 49 -27 97v272c0 48 9 80.333 27 97s51.667 25 101 25h308c49.333 0 83 -8.33301 101 -25s27 -49 27 -97v-49l-120 -19v98h-324
v-327h324v111l120 -25v-61z" />
    <glyph glyph-name="cacute" unicode="&#x107;" horiz-adv-x="644" 
d="M450 628l-103 -150h-78l73 150h108zM569 100c0 -39.333 -7.83301 -65.833 -23.5 -79.5s-44.834 -20.5 -87.501 -20.5h-264c-42.667 0 -71.667 7 -87 21s-23 40.333 -23 79v223c0 39.333 7.66699 65.833 23 79.5s44.333 20.5 87 20.5h264
c42.667 0 71.834 -6.83301 87.501 -20.5s23.5 -40.167 23.5 -79.5v-41l-104 -15v78h-278v-264h278v90l104 -21v-50z" />
    <glyph glyph-name="Ccircumflex" unicode="&#x108;" horiz-adv-x="801" 
d="M548 549h-63l-82 103l-82 -103h-63l92 170h107zM685 122c0 -48 -9 -80.333 -27 -97s-51.667 -25 -101 -25h-308c-49.333 -0 -83 8.33301 -101 25s-27 49 -27 97v272c0 48 9 80.333 27 97s51.667 25 101 25h308c49.333 0 83 -8.33301 101 -25s27 -49 27 -97v-49l-120 -19
v98h-324v-327h324v111l120 -25v-61z" />
    <glyph glyph-name="ccircumflex" unicode="&#x109;" horiz-adv-x="644" 
d="M469 458h-64l-81 103l-82 -103h-63l92 170h106zM569 100c0 -39.333 -7.83301 -65.833 -23.5 -79.5s-44.834 -20.5 -87.501 -20.5h-264c-42.667 0 -71.667 7 -87 21s-23 40.333 -23 79v223c0 39.333 7.66699 65.833 23 79.5s44.333 20.5 87 20.5h264
c42.667 0 71.834 -6.83301 87.501 -20.5s23.5 -40.167 23.5 -79.5v-41l-104 -15v78h-278v-264h278v90l104 -21v-50z" />
    <glyph glyph-name="Cdotaccent" unicode="&#x10a;" horiz-adv-x="801" 
d="M454 600h-105v117h105v-117zM685 122c0 -48 -9 -80.333 -27 -97s-51.667 -25 -101 -25h-308c-49.333 -0 -83 8.33301 -101 25s-27 49 -27 97v272c0 48 9 80.333 27 97s51.667 25 101 25h308c49.333 0 83 -8.33301 101 -25s27 -49 27 -97v-49l-120 -19v98h-324v-327h324
v111l120 -25v-61z" />
    <glyph glyph-name="cdotaccent" unicode="&#x10b;" horiz-adv-x="644" 
d="M379 511h-105v117h105v-117zM569 100c0 -39.333 -7.83301 -65.833 -23.5 -79.5s-44.834 -20.5 -87.501 -20.5h-264c-42.667 0 -71.667 7 -87 21s-23 40.333 -23 79v223c0 39.333 7.66699 65.833 23 79.5s44.333 20.5 87 20.5h264c42.667 0 71.834 -6.83301 87.501 -20.5
s23.5 -40.167 23.5 -79.5v-41l-104 -15v78h-278v-264h278v90l104 -21v-50z" />
    <glyph glyph-name="Ccaron" unicode="&#x10c;" horiz-adv-x="801" 
d="M549 718l-92 -170h-106l-92 170h63l82 -102l81 102h64zM685 122c0 -48 -9 -80.333 -27 -97s-51.667 -25 -101 -25h-308c-49.333 -0 -83 8.33301 -101 25s-27 49 -27 97v272c0 48 9 80.333 27 97s51.667 25 101 25h308c49.333 0 83 -8.33301 101 -25s27 -49 27 -97v-49
l-120 -19v98h-324v-327h324v111l120 -25v-61z" />
    <glyph glyph-name="ccaron" unicode="&#x10d;" horiz-adv-x="644" 
d="M474 628l-92 -170h-106l-92 170h63l82 -102l81 102h64zM569 100c0 -39.333 -7.83301 -65.833 -23.5 -79.5s-44.834 -20.5 -87.501 -20.5h-264c-42.667 0 -71.667 7 -87 21s-23 40.333 -23 79v223c0 39.333 7.66699 65.833 23 79.5s44.333 20.5 87 20.5h264
c42.667 0 71.834 -6.83301 87.501 -20.5s23.5 -40.167 23.5 -79.5v-41l-104 -15v78h-278v-264h278v90l104 -21v-50z" />
    <glyph glyph-name="Dcaron" unicode="&#x10e;" horiz-adv-x="847" 
d="M538 720l-92 -170h-106l-92 170h63l82 -102l81 102h64zM759 261c0 -51.333 -11.668 -97.999 -35.001 -139.999c-25.333 -44 -60.666 -75.667 -105.999 -95c-41.333 -17.333 -103 -26 -185 -26h-301v516h332c95.333 0 168.333 -22.333 219 -67s76 -107.334 76 -188.001z
M634.999 263.001c0 107.333 -56.667 161 -170 161h-213v-327h155c79.333 0 136.333 11.667 171 35c38 25.333 57 69 57 131z" />
    <glyph glyph-name="dcaron" unicode="&#x10f;" horiz-adv-x="694" 
d="M633 213c0 -142 -93.333 -212.999 -280 -212.999h-259v423h285c82.667 0 145.667 -18.333 189 -55s65 -88.334 65 -155.001zM527 218.001c0 86 -49 129 -147 129h-182v-268h133c68.667 0 117.667 9.33301 147 28c32.667 21.333 49 58.333 49 111zM487 647.001l-92 -170
h-106l-92 170h63l82 -102l81 102h64z" />
    <glyph glyph-name="Dcroat" unicode="&#x110;" horiz-adv-x="847" 
d="M759 261c0 -51.333 -11.668 -97.999 -35.001 -139.999c-25.333 -44 -60.666 -75.667 -105.999 -95c-41.333 -17.333 -103 -26 -185 -26h-301v223h-96v95h96v198h332c95.333 0 168.333 -22.333 219 -67s76 -107.334 76 -188.001zM634.999 263.001
c0 107.333 -56.667 161 -170 161h-213v-106h192v-95h-192v-126h155c79.333 0 136.333 11.667 171 35c38 25.333 57 69 57 131z" />
    <glyph glyph-name="dcroat" unicode="&#x111;" horiz-adv-x="694" 
d="M633 213c0 -142 -93.333 -213 -280 -213h-259v178h-82v78h82v167h285c75.333 0 135 -15.667 179 -47c50 -36 75 -90.333 75 -163zM527 218c0 86 -49 128.999 -147 128.999h-182v-91h166v-78h-166v-99h133c63.333 0 109 7.66699 137 23
c39.333 20.667 59 59.334 59 116.001z" />
    <glyph glyph-name="Emacron" unicode="&#x112;" horiz-adv-x="755" 
d="M549 597h-269v72h269v-72zM665 0h-533v516h528v-88h-408v-115h238v-88h-238v-128h413v-97z" />
    <glyph glyph-name="emacron" unicode="&#x113;" horiz-adv-x="608" 
d="M453 521h-270v72h270v-72zM553 0h-459v423h454v-75h-350v-92h204v-73h-204v-104h355v-79z" />
    <glyph glyph-name="Ebreve" unicode="&#x114;" horiz-adv-x="755" 
d="M541 718c-6 -95.333 -54.001 -143 -144.001 -143s-138.667 47.667 -146 143h59c3.33301 -47.333 32.333 -71 87 -71s83.334 23.667 86.001 71h58zM664.999 0h-533v516h528v-88h-408v-115h238v-88h-238v-128h413v-97z" />
    <glyph glyph-name="ebreve" unicode="&#x115;" horiz-adv-x="608" 
d="M474 628c-6 -95.333 -54 -143 -144 -143c-90.667 0 -139.334 47.667 -146.001 143h59c3.33301 -47.333 32.333 -71 87 -71s83.334 23.667 86.001 71h58zM553 0h-459v423h454v-75h-350v-92h204v-73h-204v-104h355v-79z" />
    <glyph glyph-name="Edotaccent" unicode="&#x116;" horiz-adv-x="755" 
d="M444 603h-105v117h105v-117zM665 0h-533v516h528v-88h-408v-115h238v-88h-238v-128h413v-97z" />
    <glyph glyph-name="edotaccent" unicode="&#x117;" horiz-adv-x="608" 
d="M389 511h-105v117h105v-117zM553 0h-459v423h454v-75h-350v-92h204v-73h-204v-104h355v-79z" />
    <glyph glyph-name="Eogonek" unicode="&#x118;" horiz-adv-x="755" 
d="M665 0l-175 -0.000976562l-23 -27v-24h27v24h68c0 -62 -26.333 -93 -79 -93c-59.333 0 -89 27.333 -89 82c0 14.667 3.66699 27.334 11 38.001h-273v516h528v-88h-408v-115h238v-88h-238v-128h413v-97z" />
    <glyph glyph-name="eogonek" unicode="&#x119;" horiz-adv-x="608" 
d="M553 0l-151 -0.000976562l-23 -27v-24h27v24h68c0 -62 -26.333 -93 -79 -93c-59.333 0 -89 27.333 -89 82c0 14.667 3.66699 27.334 11 38.001h-223v423h454v-75h-350v-92h204v-73h-204v-104h355v-79z" />
    <glyph glyph-name="Ecaron" unicode="&#x11a;" horiz-adv-x="755" 
d="M542 720l-92 -170h-106l-92 170h63l82 -102l81 102h64zM665 0h-533v516h528v-88h-408v-115h238v-88h-238v-128h413v-97z" />
    <glyph glyph-name="ecaron" unicode="&#x11b;" horiz-adv-x="608" 
d="M484 628l-92 -170h-106l-92 170h63l82 -102l81 102h64zM553 0h-459v423h454v-75h-350v-92h204v-73h-204v-104h355v-79z" />
    <glyph glyph-name="Gcircumflex" unicode="&#x11c;" horiz-adv-x="855" 
d="M577 551h-64l-81 103l-82 -103h-63l92 169h106zM733 122c0 -48 -9 -80.334 -27 -97.001s-51.667 -25 -101 -25h-356c-49.333 0 -83 8.33301 -101 25s-27 49 -27 97v272c0 48 9 80.333 27 97s51.667 25 101 25h356c48 0 81.333 -8.16699 100 -24.5s28 -47.166 28 -92.499
v-12l-117 -21v58h-375v-327h375v115h-196v88h313v-178z" />
    <glyph glyph-name="gcircumflex" unicode="&#x11d;" horiz-adv-x="692" 
d="M495 458h-64l-81 103l-82 -103h-63l92 170h106zM610 100c0 -39.333 -7.66699 -65.833 -23 -79.5s-44.333 -20.5 -87 -20.5h-306c-42.667 -0 -71.667 6.83301 -87 20.5s-23 40.167 -23 79.5v223c0 39.333 7.83301 65.833 23.5 79.5s44.5 20.5 86.5 20.5h306
c41.333 0 70 -6.5 86 -19.5s24 -38.167 24 -75.5v-11l-101 -17v45h-322v-264h322v90h-168v75h269v-146z" />
    <glyph glyph-name="Gbreve" unicode="&#x11e;" horiz-adv-x="855" 
d="M582 720c-6.66699 -95.333 -54.667 -143 -144 -143c-90.667 0 -139.334 47.667 -146.001 143h59c2.66699 -47.333 31.667 -71 87 -71c54.667 0 83.334 23.667 86.001 71h58zM733 122c0 -48 -9 -80.334 -27 -97.001s-51.667 -25 -101 -25h-356
c-49.333 0 -83 8.33301 -101 25s-27 49 -27 97v272c0 48 9 80.333 27 97s51.667 25 101 25h356c48 0 81.333 -8.16699 100 -24.5s28 -47.166 28 -92.499v-12l-117 -21v58h-375v-327h375v115h-196v88h313v-178z" />
    <glyph glyph-name="gbreve" unicode="&#x11f;" horiz-adv-x="692" 
d="M494 628c-6 -95.333 -54 -143 -144 -143c-90.667 0 -139.334 47.667 -146.001 143h59c3.33301 -47.333 32.333 -71 87 -71s83.334 23.667 86.001 71h58zM610 100c0 -39.333 -7.66699 -65.833 -23 -79.5s-44.333 -20.5 -87 -20.5h-306
c-42.667 -0 -71.667 6.83301 -87 20.5s-23 40.167 -23 79.5v223c0 39.333 7.83301 65.833 23.5 79.5s44.5 20.5 86.5 20.5h306c41.333 0 70 -6.5 86 -19.5s24 -38.167 24 -75.5v-11l-101 -17v45h-322v-264h322v90h-168v75h269v-146z" />
    <glyph glyph-name="Gdotaccent" unicode="&#x120;" horiz-adv-x="855" 
d="M483 601h-105v117h105v-117zM733 122c0 -48 -9 -80.334 -27 -97.001s-51.667 -25 -101 -25h-356c-49.333 0 -83 8.33301 -101 25s-27 49 -27 97v272c0 48 9 80.333 27 97s51.667 25 101 25h356c48 0 81.333 -8.16699 100 -24.5s28 -47.166 28 -92.499v-12l-117 -21v58
h-375v-327h375v115h-196v88h313v-178z" />
    <glyph glyph-name="gdotaccent" unicode="&#x121;" horiz-adv-x="692" 
d="M399 511h-105v117h105v-117zM610 100c0 -39.333 -7.66699 -65.833 -23 -79.5s-44.333 -20.5 -87 -20.5h-306c-42.667 -0 -71.667 6.83301 -87 20.5s-23 40.167 -23 79.5v223c0 39.333 7.83301 65.833 23.5 79.5s44.5 20.5 86.5 20.5h306c41.333 0 70 -6.5 86 -19.5
s24 -38.167 24 -75.5v-11l-101 -17v45h-322v-264h322v90h-168v75h269v-146z" />
    <glyph glyph-name="Gcommaaccent" unicode="&#x122;" horiz-adv-x="855" 
d="M733 122c0 -48 -9 -80.334 -27 -97.001s-51.667 -25 -101 -25h-356c-49.333 0 -83 8.33301 -101 25s-27 49 -27 97v272c0 48 9 80.333 27 97s51.667 25 101 25h356c48 0 81.333 -8.16699 100 -24.5s28 -47.166 28 -92.499v-12l-117 -21v58h-375v-327h375v115h-196v88h313
v-178zM493 -132.001l-73.999 -110h-44l63 113h-42c-12 0 -18 9 -18 27v46c0 13.333 1.66699 21.333 5 24s11.666 4 24.999 4h67c12 0 18 -9.33301 18 -28v-76z" />
    <glyph glyph-name="gcommaaccent" unicode="&#x123;" horiz-adv-x="692" 
d="M610 100c0 -39.333 -7.66699 -65.833 -23 -79.5s-44.333 -20.5 -87 -20.5h-306c-42.667 -0 -71.667 6.83301 -87 20.5s-23 40.167 -23 79.5v223c0 39.333 7.83301 65.833 23.5 79.5s44.5 20.5 86.5 20.5h306c41.333 0 70 -6.5 86 -19.5s24 -38.167 24 -75.5v-11l-101 -17
v45h-322v-264h322v90h-168v75h269v-146zM405 -132l-73.999 -110h-44l63 113h-42c-12 0 -18 9 -18 27v46c0 13.333 1.66699 21.333 5 24s11.666 4 24.999 4h67c12 0 18 -9.33301 18 -28v-76z" />
    <glyph glyph-name="Hcircumflex" unicode="&#x124;" horiz-adv-x="880" 
d="M597 549h-64l-81 103l-82 -103h-63l91 170h107zM748 0h-121v222h-375v-222h-120v516h120v-200h375v200h121v-516z" />
    <glyph glyph-name="hcircumflex" unicode="&#x125;" horiz-adv-x="718" 
d="M505 458h-64l-81 103l-82 -103h-63l92 170h106zM623 0h-103v178h-322v-178h-104v423h104v-161h322v161h103v-423z" />
    <glyph glyph-name="Hbar" unicode="&#x126;" horiz-adv-x="880" 
d="M843 388h-95v-388h-121v222h-375v-222h-120v388h-90v67h90v61h120v-61h375v61h121v-61h95v-67zM627 316v72h-375v-72h375z" />
    <glyph glyph-name="hbar" unicode="&#x127;" horiz-adv-x="718" 
d="M689 313h-66v-313h-103v178h-322v-178h-104v313h-64v62h64v48h104v-48h322v48h103v-48h66v-62zM520 262v51h-322v-51h322z" />
    <glyph glyph-name="Itilde" unicode="&#x128;" horiz-adv-x="384" 
d="M339 706c-14.667 -73.333 -47.001 -110 -97.001 -110c-10.667 0 -22.334 1.66699 -35.001 5l-40 12c-11.333 3.33301 -21.666 5 -30.999 5c-21.333 0 -35.333 -11 -42 -33h-49c12.667 71.333 44 107 94 107c10.667 0 24.334 -2.33301 41.001 -7l43 -12
c6.66699 -2 15 -3 25 -3c22 0 36 12 42 36h49zM251.999 0h-120v516h120v-516z" />
    <glyph glyph-name="itilde" unicode="&#x129;" horiz-adv-x="291" 
d="M287 628c-14.667 -73.333 -47.333 -110 -98 -110c-10 0 -21.333 1.66699 -34 5l-40 12c-11.333 3.33301 -22 5 -32 5c-20.667 0 -34.667 -11 -42 -33h-47c12 71.333 42.667 107 92 107c11.333 0 25 -2.33301 41 -7l44 -12c6.66699 -2 15 -3 25 -3c22 0 36 12 42 36h49z
M197.001 0h-103v423h103v-423z" />
    <glyph glyph-name="Imacron" unicode="&#x12a;" horiz-adv-x="384" 
d="M322 598h-269v72h269v-72zM252 0h-120v516h120v-516z" />
    <glyph glyph-name="imacron" unicode="&#x12b;" horiz-adv-x="291" 
d="M285 521h-270v72h270v-72zM197 0h-103v423h103v-423z" />
    <glyph glyph-name="Ibreve" unicode="&#x12c;" horiz-adv-x="384" 
d="M340 722c-6.66699 -95.333 -54.667 -143 -144 -143c-90.667 0 -139.334 47.667 -146.001 143h59c2.66699 -47.333 31.667 -71 87 -71c54.667 0 83.334 23.667 86.001 71h58zM252 0h-120v516h120v-516z" />
    <glyph glyph-name="ibreve" unicode="&#x12d;" horiz-adv-x="291" 
d="M292 628c-6 -95.333 -54 -143 -144 -143c-90.667 0 -139.334 47.667 -146.001 143h59c3.33301 -47.333 32.333 -71 87 -71s83.334 23.667 86.001 71h58zM197 0h-103v423h103v-423z" />
    <glyph glyph-name="Iogonek" unicode="&#x12e;" horiz-adv-x="384" 
d="M272 -27c0 -62 -26.333 -92.999 -79 -92.999c-59.333 0 -89 27.333 -89 82c0 23.333 9.33301 42.666 28 57.999v496h120v-516h-52l-23 -27v-24h27v24h68z" />
    <glyph glyph-name="iogonek" unicode="&#x12f;" horiz-adv-x="291" 
d="M223 -27c0 -62 -26.333 -93 -79 -93c-59.333 0 -89 27.333 -89 82c0 28.667 13 50.667 39 66v395h103v-423h-46l-23 -27v-24h27v24h68z" />
    <glyph glyph-name="Idotaccent" unicode="&#x130;" horiz-adv-x="384" 
d="M248 604h-105v117h105v-117zM252 0h-120v516h120v-516z" />
    <glyph glyph-name="dotlessi" unicode="&#x131;" horiz-adv-x="291" 
d="M197 0h-103v423h103v-423z" />
    <glyph glyph-name="IJ" unicode="&#x132;" horiz-adv-x="960" 
d="M836 122c0 -48 -9 -80.333 -27 -97s-51.667 -25 -101 -25h-221c-49.333 -0 -83 8.33301 -101 25s-27 49 -27 97v107l121 23v-155h236v419h120v-394zM252 0h-120v516h120v-516z" />
    <glyph glyph-name="ij" unicode="&#x133;" horiz-adv-x="776" 
d="M675 100c0 -39.333 -7.83105 -65.833 -23.498 -79.5s-44.834 -20.5 -87.501 -20.5h-188c-42.667 -0 -71.834 6.83301 -87.501 20.5s-23.5 40.167 -23.5 79.5v88l104 19v-128h202v344h104v-323zM197.002 0h-103v423h103v-423z" />
    <glyph glyph-name="Jcircumflex" unicode="&#x134;" horiz-adv-x="667" 
d="M641 550h-64l-81 103l-82 -103h-63l92 170h107zM556 122c0 -48 -9 -80.333 -27 -97s-51.667 -25 -101 -25h-221c-49.333 -0 -83 8.33301 -101 25s-27 49 -27 97v107l121 23v-155h236v419h120v-394z" />
    <glyph glyph-name="jcircumflex" unicode="&#x135;" horiz-adv-x="560" 
d="M560 458h-64l-81 103l-82 -103h-63l92 170h106zM465 100c0 -39.333 -7.83105 -65.833 -23.498 -79.5s-44.834 -20.5 -87.501 -20.5h-188c-42.667 -0 -71.834 6.83301 -87.501 20.5s-23.5 40.167 -23.5 79.5v88l104 19v-128h202v344h104v-323z" />
    <glyph glyph-name="Kcommaaccent" unicode="&#x136;" horiz-adv-x="794" 
d="M755 0h-193l-309 227v-227h-121v516h121v-215l286 215h174l-342 -243zM463 -132l-73.999 -110h-44l63 113h-42c-12 0 -18 9 -18 27v46c0 13.333 1.66699 21.333 5 24s11.666 4 24.999 4h67c12 0 18 -9.33301 18 -28v-76z" />
    <glyph glyph-name="kcommaaccent" unicode="&#x137;" horiz-adv-x="620" 
d="M627 0h-163l-266 191v-191h-104v423h104v-171l247 171h149l-292 -196zM358 -132l-73.999 -110h-44l63 113h-42c-12 0 -18 9 -18 27v46c0 13.333 1.66699 21.333 5 24s11.666 4 24.999 4h67c12 0 18 -9.33301 18 -28v-76z" />
    <glyph glyph-name="Lacute" unicode="&#x139;" horiz-adv-x="683" 
d="M340 718l-103 -150h-78l73 150h108zM639 0h-507v516h120v-419h387v-97z" />
    <glyph glyph-name="lacute" unicode="&#x13a;" horiz-adv-x="552" 
d="M297 628l-103 -150h-78l73 150h108zM530 0h-436v423h104v-344h332v-79z" />
    <glyph glyph-name="Lcommaaccent" unicode="&#x13b;" horiz-adv-x="683" 
d="M639 0h-507v516h120v-419h387v-97zM465 -132l-73.999 -110h-44l63 113h-42c-12 0 -18 9 -18 27v46c0 13.333 1.66699 21.333 5 24s11.666 4 24.999 4h67c12 0 18 -9.33301 18 -28v-76z" />
    <glyph glyph-name="lcommaaccent" unicode="&#x13c;" horiz-adv-x="552" 
d="M530 0h-436v423h104v-344h332v-79zM380 -132l-73.999 -110h-44l63 113h-42c-12 0 -18 9 -18 27v46c0 13.333 1.66699 21.333 5 24s11.666 4 24.999 4h67c12 0 18 -9.33301 18 -28v-76z" />
    <glyph glyph-name="Lcaron" unicode="&#x13d;" horiz-adv-x="683" 
d="M639 0h-507v516h120v-419h387v-97zM392 412l-73.999 -110h-44l63 113h-42c-12 0 -18 9 -18 27v46c0 13.333 1.66699 21.333 5 24s11.666 4 24.999 4h67c12 0 18 -9.33301 18 -28v-76z" />
    <glyph glyph-name="lcaron" unicode="&#x13e;" horiz-adv-x="552" 
d="M530 0h-436v423h104v-344h332v-79zM342 412l-73.999 -110h-44l63 113h-42c-12 0 -18 9 -18 27v46c0 13.333 1.66699 21.333 5 24s11.666 4 24.999 4h67c12 0 18 -9.33301 18 -28v-76z" />
    <glyph glyph-name="Ldot" unicode="&#x13f;" horiz-adv-x="683" 
d="M505 258c0 -22 -8.16797 -41.165 -24.501 -57.498s-35.5 -24.5 -57.5 -24.5s-41 8.16699 -57 24.5s-24 35.5 -24 57.5c0 23.333 7.83301 42.666 23.5 57.999s34.834 23 57.501 23c23.333 0 42.833 -7.83301 58.5 -23.5s23.5 -34.834 23.5 -57.501zM638.999 0.00195312
h-507v516h120v-419h387v-97z" />
    <glyph glyph-name="ldot" unicode="&#x140;" horiz-adv-x="552" 
d="M437 218c0 -22 -8.16797 -41.165 -24.501 -57.498s-35.5 -24.5 -57.5 -24.5s-41 8.16699 -57 24.5s-24 35.5 -24 57.5c0 23.333 7.83301 42.666 23.5 57.999s34.834 23 57.501 23c23.333 0 42.833 -7.83301 58.5 -23.5s23.5 -34.834 23.5 -57.501zM529.999 0.00195312
h-436v423h104v-344h332v-79z" />
    <glyph glyph-name="Lslash" unicode="&#x141;" horiz-adv-x="683" 
d="M639 0h-507v203l-54 -36v104l54 36v209h120v-137l124 87v-106l-124 -87v-176h387v-97z" />
    <glyph glyph-name="lslash" unicode="&#x142;" horiz-adv-x="552" 
d="M530 0h-436v143l-38 -28v86l38 27v195h104v-134l114 79v-88l-114 -78v-123h332v-79z" />
    <glyph glyph-name="Nacute" unicode="&#x143;" horiz-adv-x="869" 
d="M567 721l-103 -150h-78l73 150h108zM738 0l-82 -0.000976562l-379 319c-16 13.333 -30.333 27.333 -43 42c3.33301 -33.333 5 -60.666 5 -81.999v-279h-108v516h82l363 -304c26 -22 45.667 -40.667 59 -56c-3.33301 48 -5 77.667 -5 89v271h108v-516z" />
    <glyph glyph-name="nacute" unicode="&#x144;" horiz-adv-x="712" 
d="M490 628l-103 -150h-78l73 150h108zM617 0h-71l-358 285v-285h-94v423h71l359 -281v281h93v-423z" />
    <glyph glyph-name="Ncommaaccent" unicode="&#x145;" horiz-adv-x="869" 
d="M738 0l-82 -0.000976562l-379 319c-16 13.333 -30.333 27.333 -43 42c3.33301 -33.333 5 -60.666 5 -81.999v-279h-108v516h82l363 -304c26 -22 45.667 -40.667 59 -56c-3.33301 48 -5 77.667 -5 89v271h108v-516zM493 -132.001l-73.999 -110h-44l63 113h-42
c-12 0 -18 9 -18 27v46c0 13.333 1.66699 21.333 5 24s11.666 4 24.999 4h67c12 0 18 -9.33301 18 -28v-76z" />
    <glyph glyph-name="ncommaaccent" unicode="&#x146;" horiz-adv-x="712" 
d="M617 0h-71l-358 285v-285h-94v423h71l359 -281v281h93v-423zM430 -132l-73.999 -110h-44l63 113h-42c-12 0 -18 9 -18 27v46c0 13.333 1.66699 21.333 5 24s11.666 4 24.999 4h67c12 0 18 -9.33301 18 -28v-76z" />
    <glyph glyph-name="Ncaron" unicode="&#x147;" horiz-adv-x="869" 
d="M557 721l-92 -170h-106l-92 170h63l82 -102l81 102h64zM738 0l-82 -0.000976562l-379 319c-16 13.333 -30.333 27.333 -43 42c3.33301 -33.333 5 -60.666 5 -81.999v-279h-108v516h82l363 -304c26 -22 45.667 -40.667 59 -56c-3.33301 48 -5 77.667 -5 89v271h108v-516z
" />
    <glyph glyph-name="ncaron" unicode="&#x148;" horiz-adv-x="712" 
d="M495 628l-92 -170h-106l-92 170h63l82 -102l81 102h64zM617 0h-71l-358 285v-285h-94v423h71l359 -281v281h93v-423z" />
    <glyph glyph-name="Omacron" unicode="&#x14c;" horiz-adv-x="878" 
d="M580 597h-270v72h270v-72zM757 122c0 -48 -9 -80.333 -27 -97s-51.667 -25 -101 -25h-380c-49.333 -0 -83 8.33301 -101 25s-27 49 -27 97v272c0 48 9 80.333 27 97s51.667 25 101 25h380c49.333 0 83 -8.33301 101 -25s27 -49 27 -97v-272zM637 97v327h-396v-327h396z
" />
    <glyph glyph-name="omacron" unicode="&#x14d;" horiz-adv-x="715" 
d="M495 521h-270v72h270v-72zM631 100c0 -39.333 -7.83301 -65.833 -23.5 -79.5s-44.5 -20.5 -86.5 -20.5h-327c-42.667 -0 -71.667 6.83301 -87 20.5s-23 40.167 -23 79.5v223c0 40 7.66699 66.667 23 80s44.333 20 87 20h327c42.667 0 71.667 -6.66699 87 -20
s23 -40 23 -80v-223zM528 81v264h-341v-264h341z" />
    <glyph glyph-name="Obreve" unicode="&#x14e;" horiz-adv-x="878" 
d="M585 721c-6 -95.333 -54.001 -143 -144.001 -143s-138.667 47.667 -146 143h59c3.33301 -47.333 32.333 -71 87 -71s83.334 23.667 86.001 71h58zM756.999 122c0 -48 -9 -80.333 -27 -97s-51.667 -25 -101 -25h-380c-49.333 -0 -83 8.33301 -101 25s-27 49 -27 97v272
c0 48 9 80.333 27 97s51.667 25 101 25h380c49.333 0 83 -8.33301 101 -25s27 -49 27 -97v-272zM636.999 97v327h-396v-327h396z" />
    <glyph glyph-name="obreve" unicode="&#x14f;" horiz-adv-x="715" 
d="M505 628c-6 -95.333 -54 -143 -144 -143c-90.667 0 -139.334 47.667 -146.001 143h59c3.33301 -47.333 32.333 -71 87 -71s83.334 23.667 86.001 71h58zM631 100c0 -39.333 -7.83301 -65.833 -23.5 -79.5s-44.5 -20.5 -86.5 -20.5h-327
c-42.667 -0 -71.667 6.83301 -87 20.5s-23 40.167 -23 79.5v223c0 40 7.66699 66.667 23 80s44.333 20 87 20h327c42.667 0 71.667 -6.66699 87 -20s23 -40 23 -80v-223zM528 81v264h-341v-264h341z" />
    <glyph glyph-name="Ohungarumlaut" unicode="&#x150;" horiz-adv-x="878" 
d="M620 721l-124 -150h-51l79 150h96zM474 721l-106 -150h-51l65 150h92zM757 122c0 -48 -9 -80.333 -27 -97s-51.667 -25 -101 -25h-380c-49.333 -0 -83 8.33301 -101 25s-27 49 -27 97v272c0 48 9 80.333 27 97s51.667 25 101 25h380c49.333 0 83 -8.33301 101 -25
s27 -49 27 -97v-272zM637 97v327h-396v-327h396z" />
    <glyph glyph-name="ohungarumlaut" unicode="&#x151;" horiz-adv-x="715" 
d="M535 628l-124 -150h-51l79 150h96zM389 628l-106 -150h-51l65 150h92zM631 100c0 -39.333 -7.83301 -65.833 -23.5 -79.5s-44.5 -20.5 -86.5 -20.5h-327c-42.667 -0 -71.667 6.83301 -87 20.5s-23 40.167 -23 79.5v223c0 40 7.66699 66.667 23 80s44.333 20 87 20h327
c42.667 0 71.667 -6.66699 87 -20s23 -40 23 -80v-223zM528 81v264h-341v-264h341z" />
    <glyph glyph-name="OE" unicode="&#x152;" horiz-adv-x="1105" 
d="M1016 0h-767c-49.333 -0 -83 8.33301 -101 25s-27 49 -27 97v272c0 48 9 80.333 27 97s51.667 25 101 25h762v-88h-333v-115h238v-88h-238v-128h338v-97zM561 97v331h-320v-331h320z" />
    <glyph glyph-name="oe" unicode="&#x153;" horiz-adv-x="907" 
d="M854 0h-660c-42.667 -0 -71.667 6.83301 -87 20.5s-23 40.167 -23 79.5v223c0 39.333 7.66699 65.833 23 79.5s44.333 20.5 87 20.5h656v-75h-287v-92h205v-73h-205v-103h291v-80zM463 81v264h-276v-264h276z" />
    <glyph glyph-name="Racute" unicode="&#x154;" horiz-adv-x="802" 
d="M498 720l-103 -150h-78l73 150h108zM744 0h-172l-208 195h-114v-195h-118v516h442c77.333 0 116 -33.333 116 -100v-121c0 -66.667 -38.667 -100 -116 -100h-68zM574 324v62c0 17.333 -5 29 -15 35c-7.33301 4 -20.333 6 -39 6h-270v-144h270c18.667 0 31.667 2 39 6
c10 6 15 17.667 15 35z" />
    <glyph glyph-name="racute" unicode="&#x155;" horiz-adv-x="650" 
d="M427 628l-103 -150h-78l73 150h108zM618 0h-148l-177 160h-97v-160h-102v423h381c66 0 99 -27.333 99 -82v-100c0 -54 -33 -81 -99 -81h-58zM478 267v49c0 22.667 -15.667 34 -47 34h-235v-117h235c31.333 0 47 11.333 47 34z" />
    <glyph glyph-name="Rcommaaccent" unicode="&#x156;" horiz-adv-x="802" 
d="M744 0h-172l-208 195h-114v-195h-118v516h442c77.333 0 116 -33.333 116 -100v-121c0 -66.667 -38.667 -100 -116 -100h-68zM574 324v62c0 17.333 -5 29 -15 35c-7.33301 4 -20.333 6 -39 6h-270v-144h270c18.667 0 31.667 2 39 6c10 6 15 17.667 15 35zM463 -132
l-73.999 -110h-44l63 113h-42c-12 0 -18 9 -18 27v46c0 13.333 1.66699 21.333 5 24s11.666 4 24.999 4h67c12 0 18 -9.33301 18 -28v-76z" />
    <glyph glyph-name="rcommaaccent" unicode="&#x157;" horiz-adv-x="650" 
d="M618 0h-148l-177 160h-97v-160h-102v423h381c66 0 99 -27.333 99 -82v-100c0 -54 -33 -81 -99 -81h-58zM478 267v49c0 22.667 -15.667 34 -47 34h-235v-117h235c31.333 0 47 11.333 47 34zM373 -132l-73.999 -110h-44l63 113h-42c-12 0 -18 9 -18 27v46
c0 13.333 1.66699 21.333 5 24s11.666 4 24.999 4h67c12 0 18 -9.33301 18 -28v-76z" />
    <glyph glyph-name="Rcaron" unicode="&#x158;" horiz-adv-x="802" 
d="M517 719l-92 -170h-106l-92 170h63l82 -102l81 102h64zM744 0h-172l-208 195h-114v-195h-118v516h442c77.333 0 116 -33.333 116 -100v-121c0 -66.667 -38.667 -100 -116 -100h-68zM574 324v62c0 17.333 -5 29 -15 35c-7.33301 4 -20.333 6 -39 6h-270v-144h270
c18.667 0 31.667 2 39 6c10 6 15 17.667 15 35z" />
    <glyph glyph-name="rcaron" unicode="&#x159;" horiz-adv-x="650" 
d="M445 628l-92 -170h-106l-92 170h63l82 -102l81 102h64zM618 0h-148l-177 160h-97v-160h-102v423h381c66 0 99 -27.333 99 -82v-100c0 -54 -33 -81 -99 -81h-58zM478 267v49c0 22.667 -15.667 34 -47 34h-235v-117h235c31.333 0 47 11.333 47 34z" />
    <glyph glyph-name="Sacute" unicode="&#x15a;" horiz-adv-x="809" 
d="M525 721l-103 -150h-78l73 150h108zM692 122c0 -48 -9.16797 -80.333 -27.501 -97s-52.166 -25 -101.499 -25h-319c-49.333 -0 -83.166 8.33301 -101.499 25s-27.5 49 -27.5 97v14l106 22v-61h365v118h-322c-49.333 0 -83 8.33301 -101 25s-27 49 -27 97v57
c0 48 9 80.333 27 97s51.667 25 101 25h293c47.333 0 80.5 -8 99.5 -24s28.5 -45.667 28.5 -89v-11l-106 -25v59h-338v-111h322c49.333 0 83.166 -8.33301 101.499 -25s27.5 -49 27.5 -97v-71z" />
    <glyph glyph-name="sacute" unicode="&#x15b;" horiz-adv-x="663" 
d="M455 628l-103 -150h-78l73 150h108zM579 100c0 -39.333 -7.66699 -65.833 -23 -79.5s-44.333 -20.5 -87 -20.5h-275c-42.667 -0 -71.834 6.83301 -87.501 20.5s-23.5 40.167 -23.5 79.5v12l92 17v-50h311v97h-274c-42 0 -71 6.83301 -87 20.5s-24 40.167 -24 79.5v47
c0 39.333 8 65.833 24 79.5s45 20.5 87 20.5h251c40.667 0 69.334 -6.33301 86.001 -19s25 -37 25 -73v-10l-89 -19v45h-291v-89h275c42.667 0 71.667 -6.83301 87 -20.5s23 -40.167 23 -79.5v-58z" />
    <glyph glyph-name="Scircumflex" unicode="&#x15c;" horiz-adv-x="809" 
d="M554 551h-64l-81 104l-82 -104h-63l92 170h107zM692 122c0 -48 -9.16797 -80.333 -27.501 -97s-52.166 -25 -101.499 -25h-319c-49.333 -0 -83.166 8.33301 -101.499 25s-27.5 49 -27.5 97v14l106 22v-61h365v118h-322c-49.333 0 -83 8.33301 -101 25s-27 49 -27 97v57
c0 48 9 80.333 27 97s51.667 25 101 25h293c47.333 0 80.5 -8 99.5 -24s28.5 -45.667 28.5 -89v-11l-106 -25v59h-338v-111h322c49.333 0 83.166 -8.33301 101.499 -25s27.5 -49 27.5 -97v-71z" />
    <glyph glyph-name="scircumflex" unicode="&#x15d;" horiz-adv-x="663" 
d="M484 458h-64l-81 103l-82 -103h-63l92 170h106zM579 100c0 -39.333 -7.66699 -65.833 -23 -79.5s-44.333 -20.5 -87 -20.5h-275c-42.667 -0 -71.834 6.83301 -87.501 20.5s-23.5 40.167 -23.5 79.5v12l92 17v-50h311v97h-274c-42 0 -71 6.83301 -87 20.5
s-24 40.167 -24 79.5v47c0 39.333 8 65.833 24 79.5s45 20.5 87 20.5h251c40.667 0 69.334 -6.33301 86.001 -19s25 -37 25 -73v-10l-89 -19v45h-291v-89h275c42.667 0 71.667 -6.83301 87 -20.5s23 -40.167 23 -79.5v-58z" />
    <glyph glyph-name="Scedilla" unicode="&#x15e;" horiz-adv-x="809" 
d="M692 122c0 -48 -9.16797 -80.333 -27.501 -97s-52.166 -25 -101.499 -25h-140v-45h8c76.667 0 115 -31.333 115 -94c0 -62 -40.667 -93 -122 -93c-36.667 0 -81 7 -133 21v58c54 -14 95.667 -21 125 -21c35.333 0 53 12.333 53 37c0 26 -23.333 39 -70 39
c-2 0 -5.33301 -0.333008 -10 -1h-10v99h-135c-49.333 -0 -83.166 8.33301 -101.499 25s-27.5 49 -27.5 97v14l106 22v-61h365v118h-322c-49.333 0 -83 8.33301 -101 25s-27 49 -27 97v57c0 48 9 80.333 27 97s51.667 25 101 25h293c47.333 0 80.5 -8 99.5 -24
s28.5 -45.667 28.5 -89v-11l-106 -25v59h-338v-111h322c49.333 0 83.166 -8.33301 101.499 -25s27.5 -49 27.5 -97v-71z" />
    <glyph glyph-name="scedilla" unicode="&#x15f;" horiz-adv-x="663" 
d="M579 100c0 -39.333 -7.66699 -65.833 -23 -79.5s-44.333 -20.5 -87 -20.5h-121v-45h8c76.667 0 115 -31.333 115 -94c0 -62 -40.667 -93 -122 -93c-36.667 0 -81 7 -133 21v58c54 -14 95.667 -21 125 -21c35.333 0 53 12.333 53 37c0 26 -23.333 39 -70 39
c-2 0 -5.33301 -0.333008 -10 -1h-10v99h-110c-42.667 -0 -71.834 6.83301 -87.501 20.5s-23.5 40.167 -23.5 79.5v12l92 17v-50h311v97h-274c-42 0 -71 6.83301 -87 20.5s-24 40.167 -24 79.5v47c0 39.333 8 65.833 24 79.5s45 20.5 87 20.5h251
c40.667 0 69.334 -6.33301 86.001 -19s25 -37 25 -73v-10l-89 -19v45h-291v-89h275c42.667 0 71.667 -6.83301 87 -20.5s23 -40.167 23 -79.5v-58z" />
    <glyph glyph-name="Scaron" unicode="&#x160;" horiz-adv-x="809" 
d="M550 740l-92 -170h-106l-92 170h63l82 -102l81 102h64zM692 122c0 -48 -9.16797 -80.333 -27.501 -97s-52.166 -25 -101.499 -25h-319c-49.333 -0 -83.166 8.33301 -101.499 25s-27.5 49 -27.5 97v14l106 22v-61h365v118h-322c-49.333 0 -83 8.33301 -101 25
s-27 49 -27 97v57c0 48 9 80.333 27 97s51.667 25 101 25h293c47.333 0 80.5 -8 99.5 -24s28.5 -45.667 28.5 -89v-11l-106 -25v59h-338v-111h322c49.333 0 83.166 -8.33301 101.499 -25s27.5 -49 27.5 -97v-71z" />
    <glyph glyph-name="scaron" unicode="&#x161;" horiz-adv-x="663" 
d="M477 647l-92 -170h-106l-92 170h63l82 -102l81 102h64zM579 100c0 -39.333 -7.66699 -65.833 -23 -79.5s-44.333 -20.5 -87 -20.5h-275c-42.667 -0 -71.834 6.83301 -87.501 20.5s-23.5 40.167 -23.5 79.5v12l92 17v-50h311v97h-274c-42 0 -71 6.83301 -87 20.5
s-24 40.167 -24 79.5v47c0 39.333 8 65.833 24 79.5s45 20.5 87 20.5h251c40.667 0 69.334 -6.33301 86.001 -19s25 -37 25 -73v-10l-89 -19v45h-291v-89h275c42.667 0 71.667 -6.83301 87 -20.5s23 -40.167 23 -79.5v-58z" />
    <glyph glyph-name="Tcommaaccent" unicode="&#x162;" horiz-adv-x="625" 
d="M610 424h-238v-424h-120v424h-237v92h595v-92zM373 -132l-73.999 -110h-44l63 113h-42c-12 0 -18 9 -18 27v46c0 13.333 1.66699 21.333 5 24s11.666 4 24.999 4h67c12 0 18 -9.33301 18 -28v-76z" />
    <glyph glyph-name="Tcommaaccent" unicode="&#x21a;" horiz-adv-x="625" 
d="M610 424h-238v-424h-120v424h-237v92h595v-92zM373 -132l-73.999 -110h-44l63 113h-42c-12 0 -18 9 -18 27v46c0 13.333 1.66699 21.333 5 24s11.666 4 24.999 4h67c12 0 18 -9.33301 18 -28v-76z" />
    <glyph glyph-name="tcommaaccent" unicode="&#x163;" horiz-adv-x="590" 
d="M551 347h-205v-347h-103v347h-204v76h512v-76zM350 -132l-73.999 -110h-44l63 113h-42c-12 0 -18 9 -18 27v46c0 13.333 1.66699 21.333 5 24s11.666 4 24.999 4h67c12 0 18 -9.33301 18 -28v-76z" />
    <glyph glyph-name="tcommaaccent" unicode="&#x21b;" horiz-adv-x="590" 
d="M551 347h-205v-347h-103v347h-204v76h512v-76zM350 -132l-73.999 -110h-44l63 113h-42c-12 0 -18 9 -18 27v46c0 13.333 1.66699 21.333 5 24s11.666 4 24.999 4h67c12 0 18 -9.33301 18 -28v-76z" />
    <glyph glyph-name="Tcaron" unicode="&#x164;" horiz-adv-x="625" 
d="M461 720l-92 -170h-106l-92 170h63l82 -102l81 102h64zM610 424h-238v-424h-120v424h-237v92h595v-92z" />
    <glyph glyph-name="tcaron" unicode="&#x165;" horiz-adv-x="590" 
d="M551 347h-205v-347h-103v347h-204v76h512v-76zM440 647l-92 -170h-106l-92 170h63l82 -102l81 102h64z" />
    <glyph glyph-name="Tbar" unicode="&#x166;" horiz-adv-x="625" 
d="M610 424h-238v-111h117v-69h-117v-244h-120v244h-128v69h128v111h-237v92h595v-92z" />
    <glyph glyph-name="tbar" unicode="&#x167;" horiz-adv-x="590" 
d="M551 347h-205v-84h103v-69h-103v-194h-103v194h-112v69h112v84h-204v76h512v-76z" />
    <glyph glyph-name="Utilde" unicode="&#x168;" horiz-adv-x="846" 
d="M569 706c-14.667 -73.333 -47.001 -110 -97.001 -110c-10.667 0 -22.334 1.66699 -35.001 5l-40 12c-11.333 3.33301 -21.666 5 -30.999 5c-21.333 0 -35.333 -11 -42 -33h-49c12.667 71.333 44 107 94 107c10.667 0 24.334 -2.33301 41.001 -7l43 -12
c6.66699 -2 15 -3 25 -3c22 0 36 12 42 36h49zM713.999 122c0 -48 -9 -80.333 -27 -97s-51.667 -25 -101 -25h-326c-49.333 -0 -83 8.33301 -101 25s-27 49 -27 97v394h120v-419h342v419h120v-394z" />
    <glyph glyph-name="utilde" unicode="&#x169;" horiz-adv-x="689" 
d="M490 628c-14.667 -73.333 -47.333 -110 -98 -110c-10 0 -21.333 1.66699 -34 5l-40 12c-11.333 3.33301 -22 5 -32 5c-20.667 0 -34.667 -11 -42 -33h-48c12.667 71.333 43.667 107 93 107c11.333 0 25 -2.33301 41 -7l44 -12c6.66699 -2 15 -3 25 -3c22 0 36 12 42 36
h49zM595.001 100c0 -39.333 -7.83203 -65.833 -23.499 -79.5s-44.834 -20.5 -87.501 -20.5h-280c-42.667 -0 -71.667 6.83301 -87 20.5s-23 40.167 -23 79.5v323h103v-344h294v344h104v-323z" />
    <glyph glyph-name="Umacron" unicode="&#x16a;" horiz-adv-x="846" 
d="M561 597h-269v72h269v-72zM714 122c0 -48 -9 -80.333 -27 -97s-51.667 -25 -101 -25h-326c-49.333 -0 -83 8.33301 -101 25s-27 49 -27 97v394h120v-419h342v419h120v-394z" />
    <glyph glyph-name="umacron" unicode="&#x16b;" horiz-adv-x="689" 
d="M481 521h-270v72h270v-72zM595 100c0 -39.333 -7.83203 -65.833 -23.499 -79.5s-44.834 -20.5 -87.501 -20.5h-280c-42.667 -0 -71.667 6.83301 -87 20.5s-23 40.167 -23 79.5v323h103v-344h294v344h104v-323z" />
    <glyph glyph-name="Ubreve" unicode="&#x16c;" horiz-adv-x="846" 
d="M571 722c-6 -95.333 -54 -143 -144 -143s-138.667 47.667 -146 143h59c3.33301 -47.333 32.333 -71 87 -71c55.333 0 84 23.667 86 71h58zM714 122c0 -48 -9 -80.333 -27 -97s-51.667 -25 -101 -25h-326c-49.333 -0 -83 8.33301 -101 25s-27 49 -27 97v394h120v-419h342
v419h120v-394z" />
    <glyph glyph-name="ubreve" unicode="&#x16d;" horiz-adv-x="689" 
d="M492 628c-6 -95.333 -54 -143 -144 -143c-90.667 0 -139.334 47.667 -146.001 143h59c3.33301 -47.333 32.333 -71 87 -71s83.334 23.667 86.001 71h58zM595 100c0 -39.333 -7.83203 -65.833 -23.499 -79.5s-44.834 -20.5 -87.501 -20.5h-280
c-42.667 -0 -71.667 6.83301 -87 20.5s-23 40.167 -23 79.5v323h103v-344h294v344h104v-323z" />
    <glyph glyph-name="Uring" unicode="&#x16e;" horiz-adv-x="846" 
d="M556 589c0 -35.333 -12.167 -65.166 -36.5 -89.499s-54.166 -36.5 -89.499 -36.5s-65 12.167 -89 36.5s-36 54.166 -36 89.499s12.167 65.166 36.5 89.499s53.833 36.5 88.5 36.5c35.333 0 65.166 -12.167 89.499 -36.5s36.5 -54.166 36.5 -89.499zM714 122
c0 -48 -9 -80.333 -27 -97s-51.667 -25 -101 -25h-326c-49.333 -0 -83 8.33301 -101 25s-27 49 -27 97v394h120v-419h342v419h120v-394zM493 589c0 18 -6 32.833 -18 44.5s-26.667 17.5 -44 17.5s-32.166 -5.83301 -44.499 -17.5s-18.5 -26.5 -18.5 -44.5
c0 -17.333 6.16699 -32.166 18.5 -44.499s27.166 -18.5 44.499 -18.5s32 6.16699 44 18.5s18 27.166 18 44.499z" />
    <glyph glyph-name="uring" unicode="&#x16f;" horiz-adv-x="689" 
d="M473 506c0 -36 -12.167 -66.167 -36.5 -90.5s-54.166 -36.5 -89.499 -36.5c-36 0 -65.833 12.167 -89.5 36.5s-35.5 54.5 -35.5 90.5c0 34.667 12 64.334 36 89.001s53.667 37 89 37s65.166 -12.333 89.499 -37s36.5 -54.334 36.5 -89.001zM595 100
c0 -39.333 -7.83203 -65.833 -23.499 -79.5s-44.834 -20.5 -87.501 -20.5h-280c-42.667 -0 -71.667 6.83301 -87 20.5s-23 40.167 -23 79.5v323h103v-344h294v344h104v-323zM410.001 506c0 17.333 -6 31.833 -18 43.5s-26.667 17.5 -44 17.5c-18 0 -33 -5.83301 -45 -17.5
s-18 -26.167 -18 -43.5c0 -18 6 -33.167 18 -45.5s27 -18.5 45 -18.5c17.333 0 32 6.16699 44 18.5s18 27.5 18 45.5z" />
    <glyph glyph-name="Uhungarumlaut" unicode="&#x170;" horiz-adv-x="846" 
d="M596 721l-124 -150h-51l79 150h96zM450 721l-106 -150h-51l65 150h92zM714 122c0 -48 -9 -80.333 -27 -97s-51.667 -25 -101 -25h-326c-49.333 -0 -83 8.33301 -101 25s-27 49 -27 97v394h120v-419h342v419h120v-394z" />
    <glyph glyph-name="uhungarumlaut" unicode="&#x171;" horiz-adv-x="689" 
d="M521 628l-124 -150h-51l79 150h96zM375 628l-106 -150h-51l65 150h92zM595 100c0 -39.333 -7.83203 -65.833 -23.499 -79.5s-44.834 -20.5 -87.501 -20.5h-280c-42.667 -0 -71.667 6.83301 -87 20.5s-23 40.167 -23 79.5v323h103v-344h294v344h104v-323z" />
    <glyph glyph-name="Uogonek" unicode="&#x172;" horiz-adv-x="846" 
d="M714 122c0 -48 -9 -80.333 -27 -97s-51.667 -25 -101 -25l-23 -27v-24h27v24h68c0 -62 -26.333 -93 -79 -93c-59.333 0 -89 27.333 -89 82c0 14 3.66699 26.667 11 38h-241c-49.333 -0 -83 8.33301 -101 25s-27 49 -27 97v394h120v-419h342v419h120v-394z" />
    <glyph glyph-name="uogonek" unicode="&#x173;" horiz-adv-x="689" 
d="M595 100c0 -39.333 -7.83203 -65.833 -23.499 -79.5s-44.834 -20.5 -87.501 -20.5l-23 -27v-24h27v24h68c0 -62 -26.333 -93 -79 -93c-59.333 0 -89 27.333 -89 82c0 14 3.66699 26.667 11 38h-195c-42.667 -0 -71.667 6.83301 -87 20.5s-23 40.167 -23 79.5v323h103
v-344h294v344h104v-323z" />
    <glyph glyph-name="Wcircumflex" unicode="&#x174;" horiz-adv-x="926" 
d="M617 549h-64l-81 103l-82 -103h-63l92 170h106zM887 516l-199 -516h-81l-142 357l-144 -357h-83l-199 516h124l131 -346l137 346h84l140 -346l125 346h107z" />
    <glyph glyph-name="wcircumflex" unicode="&#x175;" horiz-adv-x="789" 
d="M555 458h-64l-81 103l-82 -103h-63l92 170h106zM765 423l-170 -423h-70l-122 299l-124 -299h-71l-172 423h108l111 -295l119 295h71l118 -295l109 295h93z" />
    <glyph glyph-name="Ycircumflex" unicode="&#x176;" horiz-adv-x="672" 
d="M500 549h-64l-81 103l-82 -103h-63l92 170h106zM664 516l-267 -282v-234h-121v231l-268 285h160l177 -198l178 198h141z" />
    <glyph glyph-name="ycircumflex" unicode="&#x177;" horiz-adv-x="593" 
d="M453 458h-64l-81 103l-82 -103h-63l92 170h106zM587 423l-230 -231v-192h-103v190l-231 233h139l151 -158l153 158h121z" />
    <glyph glyph-name="Ydieresis" unicode="&#x178;" horiz-adv-x="672" 
d="M469 594h-100v112h100v-112zM303 594h-100v112h100v-112zM664 516l-267 -282v-234h-121v231l-268 285h160l177 -198l178 198h141z" />
    <glyph glyph-name="Zacute" unicode="&#x179;" horiz-adv-x="682" 
d="M470 721l-103 -150h-78l73 150h108zM615 0h-554v56l361 368h-325v92h518v-51l-366 -368h366v-97z" />
    <glyph glyph-name="zacute" unicode="&#x17a;" horiz-adv-x="616" 
d="M443 628l-103 -150h-78l73 150h108zM547 0h-477v46l310 301h-279v76h446v-42l-316 -303h316v-78z" />
    <glyph glyph-name="Zdotaccent" unicode="&#x17b;" horiz-adv-x="682" 
d="M405 609h-100v112h100v-112zM615 0h-554v56l361 368h-325v92h518v-51l-366 -368h366v-97z" />
    <glyph glyph-name="zdotaccent" unicode="&#x17c;" horiz-adv-x="616" 
d="M371 516h-100v112h100v-112zM547 0h-477v46l310 301h-279v76h446v-42l-316 -303h316v-78z" />
    <glyph glyph-name="Zcaron" unicode="&#x17d;" horiz-adv-x="682" 
d="M486 740l-92 -170h-106l-92 170h63l82 -102l81 102h64zM615 0h-554v56l361 368h-325v92h518v-51l-366 -368h366v-97z" />
    <glyph glyph-name="zcaron" unicode="&#x17e;" horiz-adv-x="616" 
d="M453 647l-92 -170h-106l-92 170h63l82 -102l81 102h64zM547 0h-477v46l310 301h-279v76h446v-42l-316 -303h316v-78z" />
    <glyph glyph-name="florin" unicode="&#x192;" horiz-adv-x="773" 
d="M669 491l-99 -14l2 36c0 22.667 -11.333 34 -34 34c-30 0 -49 -20.333 -57 -61l-20 -99h108v-58h-120l-63 -323c-10 -50.667 -26.333 -85.5 -49 -104.5s-60 -28.5 -112 -28.5c-87.333 0 -131 33.333 -131 100v33l98 23l-1 -42c0 -22.667 12.333 -34 37 -34
c28 0 46 20 54 60l62 316h-93v58h105l20 103c10 53.333 28 89.333 54 108c23.333 16.667 63 25 119 25c77.333 0 117 -32.667 119 -98z" />
    <glyph glyph-name="Scommaaccent" unicode="&#x218;" horiz-adv-x="809" 
d="M692 122c0 -48 -9.16797 -80.333 -27.501 -97s-52.166 -25 -101.499 -25h-319c-49.333 -0 -83.166 8.33301 -101.499 25s-27.5 49 -27.5 97v14l106 22v-61h365v118h-322c-49.333 0 -83 8.33301 -101 25s-27 49 -27 97v57c0 48 9 80.333 27 97s51.667 25 101 25h293
c47.333 0 80.5 -8 99.5 -24s28.5 -45.667 28.5 -89v-11l-106 -25v59h-338v-111h322c49.333 0 83.166 -8.33301 101.499 -25s27.5 -49 27.5 -97v-71zM476.999 -132l-73.999 -110h-44l63 113h-42c-12 0 -18 9 -18 27v46c0 13.333 1.66699 21.333 5 24s11.666 4 24.999 4h67
c12 0 18 -9.33301 18 -28v-76z" />
    <glyph glyph-name="scommaaccent" unicode="&#x219;" horiz-adv-x="663" 
d="M579 100c0 -39.333 -7.66699 -65.833 -23 -79.5s-44.333 -20.5 -87 -20.5h-275c-42.667 -0 -71.834 6.83301 -87.501 20.5s-23.5 40.167 -23.5 79.5v12l92 17v-50h311v97h-274c-42 0 -71 6.83301 -87 20.5s-24 40.167 -24 79.5v47c0 39.333 8 65.833 24 79.5
s45 20.5 87 20.5h251c40.667 0 69.334 -6.33301 86.001 -19s25 -37 25 -73v-10l-89 -19v45h-291v-89h275c42.667 0 71.667 -6.83301 87 -20.5s23 -40.167 23 -79.5v-58zM401 -132l-73.999 -110h-44l63 113h-42c-12 0 -18 9 -18 27v46c0 13.333 1.66699 21.333 5 24
s11.666 4 24.999 4h67c12 0 18 -9.33301 18 -28v-76z" />
    <glyph glyph-name="circumflex" unicode="&#x2c6;" 
d="M395 458h-64l-81 103l-82 -103h-63l92 170h106z" />
    <glyph glyph-name="caron" unicode="&#x2c7;" 
d="M395 628l-92 -170h-106l-92 170h63l82 -102l81 102h64z" />
    <glyph glyph-name="breve" unicode="&#x2d8;" 
d="M394 628c-6 -95.333 -54 -143 -144 -143c-90.667 0 -139.334 47.667 -146.001 143h59c3.33301 -47.333 32.333 -71 87 -71s83.334 23.667 86.001 71h58z" />
    <glyph glyph-name="dotaccent" unicode="&#x2d9;" 
d="M299 511h-105v117h105v-117z" />
    <glyph glyph-name="ring" unicode="&#x2da;" 
d="M386 602c0 -35.333 -12.167 -65.166 -36.5 -89.499s-54.166 -36.5 -89.499 -36.5s-65 12.167 -89 36.5s-36 54.166 -36 89.499s12.167 65.166 36.5 89.499s53.833 36.5 88.5 36.5c35.333 0 65.166 -12.167 89.499 -36.5s36.5 -54.166 36.5 -89.499zM323 602
c0 17.333 -6 32.001 -18 44.001s-26.667 18 -44 18s-32.166 -6 -44.499 -18s-18.5 -26.667 -18.5 -44c0 -18 6.16699 -33 18.5 -45s27.166 -18 44.499 -18s32 6.16699 44 18.5s18 27.166 18 44.499z" />
    <glyph glyph-name="ogonek" unicode="&#x2db;" 
d="M421 -27c0 -62 -26.333 -93 -79 -93c-59.333 0 -89 27.333 -89 82c0 20 7.16699 37.333 21.5 52s29.833 22 46.5 22l28 -36l-23 -27v-24h27v24h68z" />
    <glyph glyph-name="tilde" unicode="&#x2dc;" 
d="M399 628c-14.667 -73.333 -47.333 -110 -98 -110c-10 0 -21.333 1.66699 -34 5l-40 12c-11.333 3.33301 -22 5 -32 5c-20.667 0 -34.667 -11 -42 -33h-48c12.667 71.333 43.667 107 93 107c11.333 0 25 -2.33301 41 -7l44 -12c6.66699 -2 15 -3 25 -3c22 0 36 12 42 36
h49z" />
    <glyph glyph-name="hungarumlaut" unicode="&#x2dd;" 
d="M451 628l-124 -150h-51l79 150h96zM305 628l-106 -150h-51l65 150h92z" />
    <glyph glyph-name="endash" unicode="&#x2013;" 
d="M500 231h-500v70h500v-70z" />
    <glyph glyph-name="emdash" unicode="&#x2014;" horiz-adv-x="1000" 
d="M1000 231h-1000v70h1000v-70z" />
    <glyph glyph-name="quoteleft" unicode="&#x2018;" horiz-adv-x="331" 
d="M247 516l-85 -152h57c16 0 24 -12.333 24 -37v-62c0 -17.333 -2.16699 -27.833 -6.5 -31.5s-15.833 -5.5 -34.5 -5.5h-89c-16 0 -24 12.333 -24 37v103l99 148h59z" />
    <glyph glyph-name="quoteright" unicode="&#x2019;" horiz-adv-x="331" 
d="M242 376l-99 -148h-59l85 152h-57c-16 0 -24 12.333 -24 37v62c0 17.333 2.16699 27.833 6.5 31.5s15.833 5.5 34.5 5.5h89c16 0 24 -12.333 24 -37v-103z" />
    <glyph glyph-name="quotesinglbase" unicode="&#x201a;" horiz-adv-x="331" 
d="M242 15l-99 -147h-59l85 151h-57c-16 0 -24 12.333 -24 37v62c0 17.333 2.16699 27.833 6.5 31.5s15.833 5.5 34.5 5.5h89c16 0 24 -12.333 24 -37v-103z" />
    <glyph glyph-name="quotedblleft" unicode="&#x201c;" horiz-adv-x="579" 
d="M495 516l-85 -152h57c16 0 24 -12.333 24 -37v-62c0 -17.333 -2.5 -27.833 -7.5 -31.5s-16.5 -5.5 -34.5 -5.5h-88c-16.667 0 -25 12.333 -25 37v103l99 148h60zM247 516l-85 -152h57c16 0 24 -12.333 24 -37v-62c0 -17.333 -2.16699 -27.833 -6.5 -31.5
s-15.833 -5.5 -34.5 -5.5h-89c-16 0 -24 12.333 -24 37v103l99 148h59z" />
    <glyph glyph-name="quotedblright" unicode="&#x201d;" horiz-adv-x="579" 
d="M490 376l-99 -148h-60l85 152h-56c-16.667 0 -25 12.333 -25 37v62c0 17.333 2.5 27.833 7.5 31.5s16.5 5.5 34.5 5.5h89c16 0 24 -12.333 24 -37v-103zM242 376l-99 -148h-59l85 152h-57c-16 0 -24 12.333 -24 37v62c0 17.333 2.16699 27.833 6.5 31.5
s15.833 5.5 34.5 5.5h89c16 0 24 -12.333 24 -37v-103z" />
    <glyph glyph-name="quotedblbase" unicode="&#x201e;" horiz-adv-x="579" 
d="M490 15l-99 -147h-60l85 151h-56c-16.667 0 -25 12.333 -25 37v62c0 17.333 2.5 27.833 7.5 31.5s16.5 5.5 34.5 5.5h89c16 0 24 -12.333 24 -37v-103zM242 15l-99 -147h-59l85 151h-57c-16 0 -24 12.333 -24 37v62c0 17.333 2.16699 27.833 6.5 31.5
s15.833 5.5 34.5 5.5h89c16 0 24 -12.333 24 -37v-103z" />
    <glyph glyph-name="dagger" unicode="&#x2020;" 
d="M428 280l-164.999 36.999c9.33301 -44 23 -88 41 -132c-22.667 -86 -36.334 -182.667 -41.001 -290h-27c-4.66699 110.667 -18 207.334 -40 290.001c16 40 29.333 84 40 132l-165 -37v106l165 -35l-40 165h108l-41 -165l165 35v-106z" />
    <glyph glyph-name="daggerdbl" unicode="&#x2021;" 
d="M428 31l-165 34l41 -164h-108l40 164l-165 -34v106l165 -38l-40 109l40 109l-165 -37v106l165 -35l-40 165h108l-41 -165l165 35v-106l-165 37l41 -109l-41 -109l165 38v-106z" />
    <glyph glyph-name="bullet" unicode="&#x2022;" horiz-adv-x="590" 
d="M439 372c0 -39.333 -14.166 -73.333 -42.499 -102s-62.5 -43 -102.5 -43s-74 14.167 -102 42.5s-42 62.5 -42 102.5s14.167 74 42.5 102s62.5 42 102.5 42c39.333 0 73.166 -14 101.499 -42s42.5 -62 42.5 -102z" />
    <glyph glyph-name="ellipsis" unicode="&#x2026;" horiz-adv-x="1000" 
d="M911 37c0 -17.333 -2.5 -27.833 -7.5 -31.5s-16.5 -5.5 -34.5 -5.5h-89c-16 -0 -24 12.333 -24 37v81c0 17.333 2.5 27.833 7.5 31.5s16.5 5.5 34.5 5.5h89c16 0 24 -12.333 24 -37v-81zM577 37c0 -17.333 -2.5 -27.833 -7.5 -31.5s-16.5 -5.5 -34.5 -5.5h-89
c-16 -0 -24 12.333 -24 37v81c0 17.333 2.5 27.833 7.5 31.5s16.5 5.5 34.5 5.5h89c16 0 24 -12.333 24 -37v-81zM244 37c0 -17.333 -2.5 -27.833 -7.5 -31.5s-16.5 -5.5 -34.5 -5.5h-89c-16 -0 -24 12.333 -24 37v81c0 17.333 2.5 27.833 7.5 31.5s16.5 5.5 34.5 5.5h89
c16 0 24 -12.333 24 -37v-81z" />
    <glyph glyph-name="perthousand" unicode="&#x2030;" horiz-adv-x="1160" 
d="M1115 138c0 -42 -15.1689 -78 -45.502 -108s-66.166 -45 -107.499 -45s-77.333 15 -108 45s-46 66 -46 108c0 42.667 14.833 78.834 44.5 108.501s66.167 44.5 109.5 44.5c42.667 0 78.834 -14.833 108.501 -44.5s44.5 -65.834 44.5 -108.501zM753.998 138
c0 -42 -15.335 -77.998 -46.002 -107.998s-66.667 -45 -108 -45s-77.166 15 -107.499 45s-45.5 66 -45.5 108c0 43.333 14.833 79.666 44.5 108.999s65.834 44 108.501 44s79 -14.833 109 -44.5s45 -65.834 45 -108.501zM648.996 532.002l-435 -547h-65l435 547h65z
M350.996 380.002c0 -42 -15.1689 -78.333 -45.502 -109s-66.166 -46 -107.499 -46s-77.333 15.333 -108 46s-46 67 -46 109c0 42.667 14.833 78.667 44.5 108s66.167 44 109.5 44c42.667 0 78.834 -14.667 108.501 -44s44.5 -65.333 44.5 -108zM1046.99 137.002
c0 23.333 -8.5 43.5 -25.5 60.5s-37.167 25.5 -60.5 25.5c-22.667 0 -42.5 -8.5 -59.5 -25.5s-25.5 -37.167 -25.5 -60.5s8.33301 -43.333 25 -60s36.667 -25 60 -25c24 0 44.333 8.33301 61 25s25 36.667 25 60zM685.994 137.002c0 23.333 -8.5 43.5 -25.5 60.5
s-37.167 25.5 -60.5 25.5c-22.667 0 -42.5 -8.5 -59.5 -25.5s-25.5 -37.167 -25.5 -60.5s8.33301 -43.333 25 -60s36.667 -25 60 -25c24 0 44.333 8.33301 61 25s25 36.667 25 60zM282.994 378.002c0 23.333 -8.5 43.5 -25.5 60.5s-37.167 25.5 -60.5 25.5
c-22.667 0 -42.5 -8.5 -59.5 -25.5s-25.5 -37.167 -25.5 -60.5s8.33301 -43.333 25 -60s36.667 -25 60 -25c24 0 44.333 8.33301 61 25s25 36.667 25 60z" />
    <glyph glyph-name="guilsinglleft" unicode="&#x2039;" horiz-adv-x="331" 
d="M269 64h-89l-118 148l118 147h89l-114 -147z" />
    <glyph glyph-name="guilsinglright" unicode="&#x203a;" horiz-adv-x="331" 
d="M269 212l-118 -148h-89l114 148l-114 147h89z" />
    <glyph glyph-name="fraction" unicode="&#x2044;" horiz-adv-x="167" 
d="M333 532l-434 -547h-65l435 547h64z" />
    <glyph glyph-name="fraction" unicode="&#x2215;" horiz-adv-x="167" 
d="M333 532l-434 -547h-65l435 547h64z" />
    <glyph glyph-name="Euro" unicode="&#x20ac;" horiz-adv-x="773" 
d="M691 122c0 -47.333 -9 -79.5 -27 -96.5s-51.667 -25.5 -101 -25.5h-330c-49.333 0 -83 8.5 -101 25.5s-27 49.167 -27 96.5v43h-87l29 65h58v57h-87l29 64h58v43c0 47.333 9 79.5 27 96.5s51.667 25.5 101 25.5h330c49.333 0 83 -8.5 101 -25.5s27 -49.167 27 -96.5v-49
l-109 -19v98h-369v-73h230l-29 -64h-201v-57h176l-29 -65h-147v-72h369v115l109 -25v-61z" />
    <glyph glyph-name="trademark" unicode="&#x2122;" horiz-adv-x="833" 
d="M686 449h-48v217l-81 -217h-27l-85 217v-217h-48v263h73l74 -188l69 188h73v-263zM339 673h-84v-224h-53v224h-84v39h221v-39z" />
    <glyph glyph-name="minus" unicode="&#x2212;" horiz-adv-x="833" 
d="M709 264h-585v69h585v-69z" />
    <glyph glyph-name="Tcedilla" unicode="&#xf6c1;" horiz-adv-x="625" 
d="M610 424h-238v-469h8c76.667 0 115 -31.333 115 -94c0 -62 -40.667 -93 -122 -93c-36.667 0 -81 7 -133 21v58c54 -14 95.667 -21 125 -21c35.333 0 53 12.333 53 37c0 26 -23.333 39 -70 39c-2 0 -5.33301 -0.333008 -10 -1h-10v99h-76v424h-237v92h595v-92z" />
    <glyph glyph-name="tcedilla" unicode="&#xf6c2;" horiz-adv-x="590" 
d="M551 347h-205v-392h8c76.667 0 115 -31.333 115 -94c0 -62 -40.667 -93 -122 -93c-36.667 0 -81 7 -133 21v58c54 -14 95.667 -21 125 -21c35.333 0 53 12.333 53 37c0 26 -23.333 39 -70 39c-2 0 -5.33301 -0.333008 -10 -1h-10v99h-59v347h-204v76h512v-76z" />
    <glyph glyph-name=".null" horiz-adv-x="387" 
 />
    <glyph glyph-name="nonmarkingreturn" horiz-adv-x="387" 
 />
    </font>
</defs>
</svg>
